<svg xmlns="http://www.w3.org/2000/svg" width="682.667" height="682.667" preserveAspectRatio="xMidYMid meet" version="1.0" viewBox="0 0 512 512"><g fill="#000" stroke="none"><path d="M1060 3470 l0 -1650 -185 0 -185 0 0 -910 0 -910 520 0 520 0 -2 908 -3 907 -183 3 -182 2 2 243 3 242 1533 3 1532 2 0 1405 0 1405 -1685 0 -1685 0 0 -1650z m1530 870 l0 -470 -615 0 -615 0 0 470 0 470 615 0 615 0 0 -470z m1540 0 l0 -470 -615 0 -615 0 0 470 0 470 615 0 615 0 0 -470z m-1540 -1255 l0 -475 -615 0 -615 0 0 475 0 475 615 0 615 0 0 -475z m1540 0 l0 -475 -615 0 -615 0 0 475 0 475 615 0 615 0 0 -475z m-2710 -2175 l0 -600 -215 0 -215 0 0 600 0 600 215 0 215 0 0 -600z" transform="translate(0.000000,512.000000) scale(0.100000,-0.100000)"/></g></svg>