<svg xmlns="http://www.w3.org/2000/svg" width="24" height="24" fill="none" viewBox="0 0 24 24"><path fill="currentColor" d="M5 2H9V4H7V6H5V2Z"/><path fill="currentColor" d="M5 12H3V6H5V12Z"/><path fill="currentColor" d="M7 14H5V12H7V14Z"/><path fill="currentColor" fill-rule="evenodd" d="M9 16V14H7V16H3V14H1V16H3V18H7V22H9V18H11V16H9ZM9 16V18H7V16H9Z" clip-rule="evenodd"/><path fill="currentColor" d="M15 4V6H9V4H15Z"/><path fill="currentColor" d="M19 6H17V4H15V2H19V6Z"/><path fill="currentColor" d="M19 12V6H21V12H19Z"/><path fill="currentColor" d="M17 14V12H19V14H17Z"/><path fill="currentColor" d="M15 16V14H17V16H15Z"/><path fill="currentColor" d="M15 18H13V16H15V18Z"/><path fill="currentColor" d="M15 18H17V22H15V18Z"/></svg>