<svg xmlns="http://www.w3.org/2000/svg" width="24" height="24" fill="none" viewBox="0 0 24 24"><g clip-path="url(#clip0_43_267)"><path fill="currentColor" fill-rule="evenodd" d="M13 0H11V4H13V0ZM0 11V13H4V11H0ZM24 11V13H20V11H24ZM13 24H11V20H13V24ZM8 6H16V8H18V16H16V18H8V16H6V8H8V6ZM20 2H22V4H20V2ZM20 4V6H18V4H20ZM22 22H20V20H22V22ZM20 20H18V18H20V20ZM4 2H2V4H4V6H6V4H4V2ZM2 22H4V20H6V18H4V20H2V22Z" clip-rule="evenodd"/></g><defs><clipPath id="clip0_43_267"><rect width="24" height="24" fill="#fff"/></clipPath></defs></svg>