<svg xmlns="http://www.w3.org/2000/svg" id="e0050721-e8d8-4c79-ae50-d8fc2871d932" width="18" height="18" viewBox="0 0 18 18"><defs><linearGradient id="fcad3287-b71c-44fa-971a-6a18bcf384a0" x1="9.01" x2="9.01" y1="16.5" y2="1.5" gradientUnits="userSpaceOnUse"><stop offset="0" stop-color="#5e9641"/><stop offset=".34" stop-color="#6baa42"/><stop offset=".67" stop-color="#73b743"/><stop offset="1" stop-color="#76bb43"/></linearGradient></defs><title>Icon-networking-80</title><path fill="#ffca00" d="M15.89,2.91h1.27a.34.34,0,0,1,.34.34v3.5a.34.34,0,0,1-.34.34H15.89a0,0,0,0,1,0,0V2.91A0,0,0,0,1,15.89,2.91Z"/><path fill="#ffca00" d="M15.89,9h1.27a.34.34,0,0,1,.34.34v5.86a.34.34,0,0,1-.34.34H15.89a0,0,0,0,1,0,0V9A0,0,0,0,1,15.89,9Z"/><rect width="13.76" height="15" x="2.13" y="1.5" fill="url(#fcad3287-b71c-44fa-971a-6a18bcf384a0)" rx=".69"/><path fill="#b4ec36" d="M5.9,12.9H5.19A.2.2,0,0,1,5,12.69V4.34a.19.19,0,0,1,.19-.2H7.12a.19.19,0,0,1,.19.2.2.2,0,0,1-.19.21H5.38v7.93H5.9a.2.2,0,0,1,.19.21A.21.21,0,0,1,5.9,12.9Z"/><path fill="#b4ec36" d="M6,13.92H4.4a.2.2,0,0,1-.19-.21L4.08,3.38a.2.2,0,0,1,.06-.15.16.16,0,0,1,.13-.06H7.12v.41H4.47l.12,9.92H6Z"/><path fill="#b4ec36" d="M12,13H10.41a.19.19,0,0,1-.14-.07.18.18,0,0,1-.06-.14V7.9a.19.19,0,0,1,.19-.2l.91,0,0-2.25h.38l0,2.44a.2.2,0,0,1-.18.21l-.91,0v4.42H12Z"/><rect width="6.14" height="3.11" x="7.07" y="2.29" fill="#365615" rx=".26"/><rect width="4.9" height="1.09" x="5.86" y="12.69" fill="#365615" rx=".26" transform="translate(21.54 4.93) rotate(90)"/><rect width="4.9" height="1.09" x="3.99" y="12.71" fill="#365615" rx=".26" transform="translate(19.7 6.82) rotate(90)"/><rect width="4.9" height="1.09" x="9.98" y="12.71" fill="#f2f2f2" rx=".26" transform="translate(25.68 0.83) rotate(90)"/><ellipse cx="8.11" cy="8.06" fill="#f2f2f2" rx="1.04" ry="1.12"/><path fill="#3b3b3b" d="M.5,5.7H1.77A.34.34,0,0,1,2.11,6v5.86a.34.34,0,0,1-.34.34H.5a0,0,0,0,1,0,0V5.7A0,0,0,0,1,.5,5.7Z" transform="translate(2.61 17.95) rotate(180)"/></svg>