<svg xmlns="http://www.w3.org/2000/svg" xmlns:xlink="http://www.w3.org/1999/xlink" id="a190de4f-47a5-4f48-859f-421d4393bb54" width="18" height="18" data-name="azure-fluent-icons" viewBox="0 0 18 18"><defs><linearGradient id="b4943fc0-ee69-42fa-ba77-41b9c6c6b321" x1="9" x2="9" y1="16.007" y2="5.707" gradientUnits="userSpaceOnUse"><stop offset="0" stop-color="#32bedd"/><stop offset=".175" stop-color="#32caea"/><stop offset=".41" stop-color="#32d2f2"/><stop offset=".775" stop-color="#32d4f5"/></linearGradient></defs><title>Lighthouse-GS-networking-371</title><g><path fill="url(#b4943fc0-ee69-42fa-ba77-41b9c6c6b321)" d="M.285,5.707H17.715a0,0,0,0,1,0,0v10.08a.22.22,0,0,1-.22.22H.505a.22.22,0,0,1-.22-.22V5.707A0,0,0,0,1,.285,5.707Z"/><path fill="#0078d4" d="M.509,1.993H17.491a.22.22,0,0,1,.22.22V5.707a0,0,0,0,1,0,0H.289a0,0,0,0,1,0,0V2.213A.22.22,0,0,1,.509,1.993Z"/><g><circle cx="12.917" cy="10.218" r="1.416" fill="#0078d4"/><circle cx="9.058" cy="10.218" r="1.416" fill="#0078d4"/><circle cx="5.083" cy="10.218" r="1.416" fill="#0078d4"/></g><rect width="12.739" height="1.496" x="2.63" y="3.102" fill="#f2f2f2" rx=".11"/></g></svg>