<svg xmlns="http://www.w3.org/2000/svg" id="fd454f1c-5506-44b8-874e-8814b8b2f70b" width="18" height="18" viewBox="0 0 18 18"><defs><linearGradient id="f34d9569-2bd0-4002-8f16-3d01d8106cb5" x1="8.88" x2="8.88" y1="12.21" y2=".21" gradientUnits="userSpaceOnUse"><stop offset="0" stop-color="#0078d4"/><stop offset=".82" stop-color="#5ea0ef"/></linearGradient><linearGradient id="bdb45a0b-eb58-4970-a60a-fb2ce314f866" x1="8.88" x2="8.88" y1="16.84" y2="12.21" gradientUnits="userSpaceOnUse"><stop offset=".15" stop-color="#ccc"/><stop offset="1" stop-color="#707070"/></linearGradient></defs><title>Icon-compute-21</title><rect width="18" height="12" x="-.12" y=".21" fill="url(#f34d9569-2bd0-4002-8f16-3d01d8106cb5)" rx=".6"/><polygon fill="#50e6ff" points="11.88 4.46 11.88 7.95 8.88 9.71 8.88 6.21 11.88 4.46"/><polygon fill="#c3f1ff" points="11.88 4.46 8.88 6.22 5.88 4.46 8.88 2.71 11.88 4.46"/><polygon fill="#9cebff" points="8.88 6.22 8.88 9.71 5.88 7.95 5.88 4.46 8.88 6.22"/><polygon fill="#c3f1ff" points="5.88 7.95 8.88 6.21 8.88 9.71 5.88 7.95"/><polygon fill="#9cebff" points="11.88 7.95 8.88 6.21 8.88 9.71 11.88 7.95"/><path fill="url(#bdb45a0b-eb58-4970-a60a-fb2ce314f866)" d="M12.49,15.84c-1.78-.28-1.85-1.56-1.85-3.63H7.11c0,2.07-.06,3.35-1.84,3.63a1,1,0,0,0-.89,1h9A1,1,0,0,0,12.49,15.84Z"/></svg>