<svg xmlns="http://www.w3.org/2000/svg" id="ec6dc5e8-5958-4688-833b-f95ec061a4a8" width="18" height="18" viewBox="0 0 18 18"><defs><linearGradient id="abe3e0fd-f5f5-4d67-8cca-cb6314d5da62" x1="8.86" x2="8.86" y1="13.02" y2="1.02" gradientUnits="userSpaceOnUse"><stop offset="0" stop-color="#0078d4"/><stop offset=".82" stop-color="#5ea0ef"/></linearGradient><linearGradient id="a49c2fd2-7c71-4d63-b68f-ddf5594dd0b8" x1="8.86" x2="8.86" y1="17.65" y2="13.02" gradientUnits="userSpaceOnUse"><stop offset="0" stop-color="#1490df"/><stop offset=".98" stop-color="#1f56a3"/></linearGradient></defs><title>Icon-compute-28</title><rect width="18" height="12" x="-.14" y="1.02" fill="url(#abe3e0fd-f5f5-4d67-8cca-cb6314d5da62)" rx=".6"/><rect width="16" height="10" x=".86" y="2.02" fill="#fff" rx=".33"/><polygon fill="#0078d4" points="11.86 5.27 11.86 8.76 8.86 10.52 8.86 7.02 11.86 5.27"/><polygon fill="#83b9f9" points="11.86 5.27 8.86 7.03 5.86 5.27 8.86 3.52 11.86 5.27"/><polygon fill="#5ea0ef" points="8.86 7.03 8.86 10.52 5.86 8.76 5.86 5.27 8.86 7.03"/><polygon fill="#83b9f9" points="5.86 8.76 8.86 7.02 8.86 10.52 5.86 8.76" opacity=".2"/><polygon fill="#5ea0ef" points="11.86 8.76 8.86 7.02 8.86 10.52 11.86 8.76" opacity=".2"/><path fill="url(#a49c2fd2-7c71-4d63-b68f-ddf5594dd0b8)" d="M12.46,16.65c-1.77-.28-1.84-1.57-1.84-3.63H7.09c0,2.06-.07,3.35-1.84,3.63a1,1,0,0,0-.89,1h9A1,1,0,0,0,12.46,16.65Z"/></svg>