<svg xmlns="http://www.w3.org/2000/svg" id="b477a1e6-3b3d-43e7-938b-88464f2dd176" width="18" height="18" viewBox="0 0 18 18"><defs><linearGradient id="bc25fd79-1e91-4c2f-8691-1f9665f6d0dc" x1="9" x2="9" y1="17.44" y2="11.44" gradientUnits="userSpaceOnUse"><stop offset="0" stop-color="#0078d4"/><stop offset=".82" stop-color="#5ea0ef"/></linearGradient></defs><title>Icon-compute-39</title><g><rect width="9.97" height="12.48" x="5.62" y=".56" fill="#005ba1" rx=".42"/><rect width="9.97" height="12.48" x="4.11" y="1.91" fill="#0078d4" rx=".42"/><rect width="9.97" height="12.48" x="2.58" y="3.27" fill="#32bedd" rx=".42"/><g><polygon fill="#50e6ff" points="10.48 6.99 10.48 10.38 7.57 12.08 7.57 8.69 10.48 6.99"/><polygon fill="#c3f1ff" points="10.48 6.99 7.57 8.7 4.66 6.99 7.57 5.29 10.48 6.99"/><polygon fill="#9cebff" points="7.57 8.7 7.57 12.08 4.66 10.38 4.66 6.99 7.57 8.7"/><polygon fill="#c3f1ff" points="4.66 10.38 7.57 8.69 7.57 12.08 4.66 10.38"/><polygon fill="#9cebff" points="10.48 10.38 7.57 8.69 7.57 12.08 10.48 10.38"/></g><rect width="16.87" height="5.99" x=".56" y="11.44" fill="url(#bc25fd79-1e91-4c2f-8691-1f9665f6d0dc)" rx=".56"/><rect width="4.81" height=".87" x="6.6" y="12.92" fill="#f2f2f2" rx=".43"/></g></svg>