<svg xmlns="http://www.w3.org/2000/svg" id="a9383d60-b33f-4c78-8dbe-8ab68ace6065" width="18" height="18" viewBox="0 0 18 18"><defs><linearGradient id="a7cb4d9d-9f89-4e53-8eda-938427310066" x1="8.8" x2="8.8" y1="12.87" y2=".87" gradientUnits="userSpaceOnUse"><stop offset="0" stop-color="#0078d4"/><stop offset=".82" stop-color="#5ea0ef"/></linearGradient><linearGradient id="eab4c6b4-621d-4d9b-b611-15ceb58765b1" x1="8.81" x2="8.81" y1="17.5" y2="12.87" gradientUnits="userSpaceOnUse"><stop offset="0" stop-color="#1490df"/><stop offset=".98" stop-color="#1f56a3"/></linearGradient></defs><title>Icon-compute-33</title><rect width="18" height="12" x="-.2" y=".87" fill="url(#a7cb4d9d-9f89-4e53-8eda-938427310066)" rx=".6"/><polygon fill="#50e6ff" points="11.8 5.12 11.8 8.61 8.8 10.37 8.8 6.87 11.8 5.12"/><polygon fill="#c3f1ff" points="11.8 5.12 8.81 6.88 5.8 5.12 8.81 3.37 11.8 5.12"/><polygon fill="#9cebff" points="8.8 6.88 8.8 10.37 5.8 8.61 5.8 5.12 8.8 6.88"/><polygon fill="#c3f1ff" points="5.8 8.61 8.8 6.87 8.8 10.37 5.8 8.61"/><polygon fill="#9cebff" points="11.8 8.61 8.8 6.87 8.8 10.37 11.8 8.61"/><path fill="url(#eab4c6b4-621d-4d9b-b611-15ceb58765b1)" d="M12.41,16.5c-1.78-.28-1.85-1.56-1.84-3.63H7C7,14.94,7,16.22,5.19,16.5a1,1,0,0,0-.88,1h9A1.06,1.06,0,0,0,12.41,16.5Z"/><path fill="#fff" d="M4.68,2.07H1.93a.66.66,0,0,0-.66.66V5.49a.33.33,0,0,0,.33.33h.22a.33.33,0,0,0,.33-.33V2.94H4.68A.33.33,0,0,0,5,2.61V2.4A.33.33,0,0,0,4.68,2.07Z"/><path fill="#fff" d="M4.68,10.73H2.14V8.2a.33.33,0,0,0-.33-.33H1.6a.33.33,0,0,0-.33.33V11a.66.66,0,0,0,.66.67H4.68A.34.34,0,0,0,5,11.28v-.22A.33.33,0,0,0,4.68,10.73Z"/><path fill="#fff" d="M15.71,2.1H13a.33.33,0,0,0-.33.33v.21A.33.33,0,0,0,13,3h2.53V5.51a.33.33,0,0,0,.33.33h.23a.33.33,0,0,0,.33-.33V2.76A.66.66,0,0,0,15.71,2.1Z"/><path fill="#fff" d="M16.05,7.89h-.21a.33.33,0,0,0-.33.33v2.54H13a.33.33,0,0,0-.33.33v.22a.33.33,0,0,0,.33.33h2.75a.67.67,0,0,0,.67-.66V8.22A.33.33,0,0,0,16.05,7.89Z"/></svg>