<svg xmlns="http://www.w3.org/2000/svg" id="bb2d57d4-5ea9-40a5-8b0e-1677a54e28a5" width="18" height="18" viewBox="0 0 18 18"><defs><linearGradient id="f1f6faa7-ad54-4b4c-a870-89c001f694fd" x1="8.07" x2="8.07" y1="17.35" y2="2.34" gradientUnits="userSpaceOnUse"><stop offset="0" stop-color="#32bedd"/><stop offset=".3" stop-color="#36c3e1"/><stop offset=".67" stop-color="#41d2ee"/><stop offset="1" stop-color="#50e6ff"/></linearGradient></defs><title>Icon-compute-38</title><g><rect width="12" height="15.01" x=".32" y=".65" fill="#0078d4" rx=".5"/><rect width="12" height="15.01" x="2.07" y="2.34" fill="url(#f1f6faa7-ad54-4b4c-a870-89c001f694fd)" rx=".5"/><path fill="#773adc" d="M17.64,12.79,14.77,9.93a.14.14,0,0,0-.25.1V11.7c-3.45,0-6.9,1.84-6.9,5.17.49-.74,3-2.71,6.9-2.71v1.6a.15.15,0,0,0,.25.11L17.64,13A.17.17,0,0,0,17.64,12.79Z"/><g><polygon fill="#50e6ff" points="11.57 6.82 11.57 10.89 8.07 12.94 8.07 8.86 11.57 6.82"/><polygon fill="#c3f1ff" points="11.57 6.82 8.07 8.87 4.57 6.82 8.07 4.77 11.57 6.82"/><polygon fill="#9cebff" points="8.07 8.87 8.07 12.94 4.57 10.89 4.57 6.82 8.07 8.87"/><polygon fill="#c3f1ff" points="4.57 10.89 8.07 8.86 8.07 12.94 4.57 10.89"/><polygon fill="#9cebff" points="11.57 10.89 8.07 8.86 8.07 12.94 11.57 10.89"/></g></g></svg>