<svg xmlns="http://www.w3.org/2000/svg" id="b189dd31-f678-493f-b388-049997db3b0e" width="18" height="18" viewBox="0 0 18 18"><defs><linearGradient id="add877bb-eba5-4f6c-85e2-a20ca8b1f954" x1="8.83" x2="8.83" y1="12.87" y2=".87" gradientUnits="userSpaceOnUse"><stop offset="0" stop-color="#0078d4"/><stop offset=".82" stop-color="#5ea0ef"/></linearGradient><linearGradient id="abfd55c2-f4e9-4954-8f01-2256c47fcbfe" x1="8.83" x2="8.83" y1="17.5" y2="12.87" gradientUnits="userSpaceOnUse"><stop offset="0" stop-color="#1490df"/><stop offset=".98" stop-color="#1f56a3"/></linearGradient></defs><title>Icon-compute-27</title><rect width="18" height="12" x="-.17" y=".87" fill="url(#add877bb-eba5-4f6c-85e2-a20ca8b1f954)" rx=".6"/><rect width="16" height="10" x=".83" y="1.87" fill="#fff" rx=".33"/><polygon fill="#0078d4" points="11.83 5.12 11.83 8.61 8.83 10.37 8.83 6.87 11.83 5.12"/><polygon fill="#83b9f9" points="11.83 5.12 8.83 6.88 5.83 5.12 8.83 3.37 11.83 5.12"/><polygon fill="#5ea0ef" points="8.83 6.88 8.83 10.37 5.83 8.61 5.83 5.12 8.83 6.88"/><polygon fill="#83b9f9" points="5.83 8.61 8.83 6.87 8.83 10.37 5.83 8.61" opacity=".2"/><polygon fill="#5ea0ef" points="11.83 8.61 8.83 6.87 8.83 10.37 11.83 8.61" opacity=".2"/><path fill="url(#abfd55c2-f4e9-4954-8f01-2256c47fcbfe)" d="M12.44,16.5c-1.78-.28-1.85-1.56-1.85-3.63H7.06c0,2.07-.06,3.35-1.84,3.63a1,1,0,0,0-.89,1h9A1,1,0,0,0,12.44,16.5Z"/><path fill="#5ea0ef" d="M5.1,2.57H2.62a.59.59,0,0,0-.6.59V5.64a.3.3,0,0,0,.3.3h.2a.3.3,0,0,0,.3-.3V3.35H5.1a.3.3,0,0,0,.3-.3V2.86A.3.3,0,0,0,5.1,2.57Z"/><path fill="#5ea0ef" d="M5.1,10.37H2.81V8.09a.3.3,0,0,0-.3-.3H2.32a.3.3,0,0,0-.3.3v2.48a.59.59,0,0,0,.6.59H5.1a.3.3,0,0,0,.3-.29v-.2A.3.3,0,0,0,5.1,10.37Z"/><path fill="#5ea0ef" d="M15,2.59H12.56a.29.29,0,0,0-.3.3v.19a.29.29,0,0,0,.3.29h2.28v2.3a.29.29,0,0,0,.3.29h.2a.29.29,0,0,0,.29-.29V3.19A.59.59,0,0,0,15,2.59Z"/><path fill="#5ea0ef" d="M15.34,7.81h-.19a.3.3,0,0,0-.3.3v2.28H12.56a.29.29,0,0,0-.3.3v.2a.3.3,0,0,0,.3.3H15a.59.59,0,0,0,.59-.6V8.11A.3.3,0,0,0,15.34,7.81Z"/></svg>