<svg xmlns="http://www.w3.org/2000/svg" width="18" height="18" viewBox="0 0 18 18"><defs><linearGradient id="ebaa666f-d34b-47c6-9dd8-955cce642dd9" x1="14.415" x2="11.867" y1="13.555" y2="9.096" gradientUnits="userSpaceOnUse"><stop offset=".101" stop-color="#773adc"/><stop offset="1" stop-color="#403457"/></linearGradient></defs><title>Icon-494-ABS-Member</title><g id="fedf7af2-b5cf-45c6-91f6-8fba9e1b615a"><g><polygon fill="#773adc" points="16.299 4.726 16.299 13.274 9 17.5 9 9.048 16.299 4.726"/><path fill="url(#ebaa666f-d34b-47c6-9dd8-955cce642dd9)" d="M13.074,9.1C14.131,8.52,14.9,9,14.9,10.153a4.189,4.189,0,0,1-1.825,3.169c-1.056.576-1.825.1-1.825-1.056A3.933,3.933,0,0,1,13.074,9.1Z"/><polygon fill="#b796f9" points="16.299 4.726 9 9.048 1.701 4.726 9 .5 16.299 4.726"/><polygon fill="#a67af4" points="9 9.048 9 17.5 1.701 13.274 1.701 4.726 9 9.048"/></g></g></svg>