<svg xmlns="http://www.w3.org/2000/svg" width="18" height="18" viewBox="0 0 18 18"><defs><linearGradient id="a4852e6f-4e48-47a6-8cb7-c54017c43896" x1="9.282" x2="16.974" y1="12.079" y2="7.637" gradientUnits="userSpaceOnUse"><stop offset=".384" stop-color="#005ba1"/><stop offset=".829" stop-color="#0078d4"/></linearGradient><linearGradient id="e9ec38c7-14e5-4f51-830b-8f784d857a1c" x1="5.573" x2="14.846" y1="12.94" y2="7.422" gradientUnits="userSpaceOnUse"><stop offset=".392" stop-color="#0078d4"/><stop offset=".961" stop-color="#5ea0ef"/></linearGradient><linearGradient id="be37cc05-c8f6-46a5-965b-6b22ddf4e748" x1="7.118" x2="7.118" y1="784.39" y2="775.34" gradientTransform="matrix(1, 0, 0, -1, 0, 791.516)" gradientUnits="userSpaceOnUse"><stop offset="0" stop-color="#83b9f9"/><stop offset="1" stop-color="#5ea0ef"/></linearGradient><linearGradient id="e2db3f99-97fd-4415-9052-5130a97f875b" x1="6.919" x2="7.502" y1="788.428" y2="781.18" gradientTransform="matrix(1, 0, 0, -1, 0, 791.516)" gradientUnits="userSpaceOnUse"><stop offset="0" stop-color="#83b9f9"/><stop offset=".9" stop-color="#5ea0ef"/></linearGradient></defs><g id="fb2dd499-27de-4c23-b64f-536384c41986"><g><path fill="url(#a4852e6f-4e48-47a6-8cb7-c54017c43896)" d="M16.235,12.663a3.93,3.93,0,0,0-2.49-3.53,2.045,2.045,0,1,0-2.295-.017c-1.483.423-2.3,1.712-2.49,3.547a.661.661,0,0,0,.587.717l6.053.032a.644.644,0,0,0,.652-.635v-.008A.226.226,0,0,0,16.235,12.663Z"/><path fill="url(#e9ec38c7-14e5-4f51-830b-8f784d857a1c)" d="M14.524,13.255C14.275,11.247,13.3,9.54,11.5,8.966a2.485,2.485,0,1,0-2.789-.021c-1.8.514-2.8,2.081-3.025,4.31a.8.8,0,0,0,.713.872l7.355.039a.781.781,0,0,0,.792-.772v-.01A.284.284,0,0,0,14.524,13.255Z"/><path fill="url(#be37cc05-c8f6-46a5-965b-6b22ddf4e748)" d="M11.6,15.029a.97.97,0,0,0,.97-.97.543.543,0,0,0,0-.114c-.383-3.05-2.12-5.528-5.43-5.528s-5.121,2.1-5.479,5.5a.977.977,0,0,0,.872,1.068Z"/><path fill="#fff" d="M7.185,9.142a3.036,3.036,0,0,1-1.631-.489l1.631,4.281,1.63-4.248A3.105,3.105,0,0,1,7.185,9.142Z" opacity=".8"/><circle cx="7.16" cy="6.085" r="3.058" fill="url(#e2db3f99-97fd-4415-9052-5130a97f875b)"/><g><rect width="2.086" height=".604" x="1.715" fill="#0078d4"/><polygon fill="#0078d4" points="17.079 .604 17.418 .604 17.418 .932 18 .932 18 0 17.079 0 17.079 .604"/><polygon fill="#0078d4" points=".964 17.354 .667 17.354 .667 17.015 0 17.015 0 18 .964 18 .964 17.354"/><polygon fill="#0078d4" points="17.418 17.047 17.418 17.354 17.079 17.354 17.079 18 18 18 18 17.047 17.418 17.047"/><polygon fill="#0078d4" points=".667 .911 .667 .604 .964 .604 .964 0 0 0 0 .911 .667 .911"/><rect width="2.086" height=".604" x="4.839" fill="#0078d4"/><rect width="2.086" height=".604" x="7.952" fill="#0078d4"/><rect width="2.086" height=".604" x="11.075" fill="#0078d4"/><rect width="2.086" height=".604" x="14.199" fill="#0078d4"/><rect width="2.086" height=".604" x="1.736" y="17.354" fill="#0078d4"/><rect width="2.086" height=".604" x="4.849" y="17.354" fill="#0078d4"/><rect width="2.086" height=".604" x="7.973" y="17.354" fill="#0078d4"/><rect width="2.086" height=".604" x="11.096" y="17.354" fill="#0078d4"/><rect width="2.086" height=".604" x="14.209" y="17.354" fill="#0078d4"/><rect width=".604" height="2.086" x="17.396" y="1.641" fill="#0078d4"/><rect width=".604" height="2.086" x="17.396" y="4.754" fill="#0078d4"/><rect width=".604" height="2.086" x="17.396" y="7.878" fill="#0078d4"/><rect width=".604" height="2.086" x="17.396" y="10.991" fill="#0078d4"/><rect width=".604" height="2.086" x="17.396" y="14.114" fill="#0078d4"/><rect width=".604" height="2.086" y="1.62" fill="#0078d4"/><rect width=".604" height="2.086" y="4.744" fill="#0078d4"/><rect width=".604" height="2.086" y="7.856" fill="#0078d4"/><rect width=".604" height="2.086" y="10.98" fill="#0078d4"/><rect width=".604" height="2.086" y="14.093" fill="#0078d4"/></g></g></g></svg>