<svg xmlns="http://www.w3.org/2000/svg" id="f807cdde-18f2-4574-ba14-f0b1eef94a4a" width="18" height="18" viewBox="0 0 18 18"><defs><linearGradient id="bb67b154-af8f-4a53-a9ce-aa046b9398e9" x1="13.18" x2="8.63" y1="13.01" y2="4.38" gradientUnits="userSpaceOnUse"><stop offset="0" stop-color="#1988d9"/><stop offset=".9" stop-color="#54aef0"/></linearGradient><linearGradient id="a47d7138-084a-471d-8d63-744e75b9e8a3" x1="11.22" x2="14.37" y1="10.5" y2="15.93" gradientUnits="userSpaceOnUse"><stop offset=".1" stop-color="#54aef0"/><stop offset=".29" stop-color="#4fabee"/><stop offset=".51" stop-color="#41a2e9"/><stop offset=".74" stop-color="#2a93e0"/><stop offset=".88" stop-color="#1988d9"/></linearGradient></defs><title>Icon-identity-227</title><g><polygon fill="#50e6ff" points="1.15 10.22 8.93 15.27 16.85 10.21 17.85 11.36 8.93 17.11 .15 11.37 1.15 10.22"/><polygon fill="#fff" points="1.73 9.58 8.93 1 16.28 9.59 8.93 14.23 1.73 9.58"/><polygon fill="#50e6ff" points="8.93 1 8.93 14.23 1.73 9.58 8.93 1"/><polygon fill="url(#bb67b154-af8f-4a53-a9ce-aa046b9398e9)" points="8.93 1 8.93 14.23 16.28 9.59 8.93 1"/><polygon fill="#53b1e0" points="8.93 7.83 16.28 9.59 8.93 14.23 8.93 7.83"/><polygon fill="#9cebff" points="8.93 14.23 1.73 9.58 8.93 7.83 8.93 14.23"/><polygon fill="url(#a47d7138-084a-471d-8d63-744e75b9e8a3)" points="8.93 17.11 17.85 11.36 16.85 10.21 8.93 15.27 8.93 17.11"/><g><path id="e189a61f-631a-4122-bb2b-079e86004d96" fill="#ffca00" d="M16.32,11.88a1.16,1.16,0,0,0,0-1.65h0l-2-2a1.16,1.16,0,0,0-1.64,0h0l-2,2a1.18,1.18,0,0,0,0,1.65l1.67,1.67a.32.32,0,0,1,.09.23v3.1a.36.36,0,0,0,.12.28l.76.76a.25.25,0,0,0,.37,0l.73-.73h0l.44-.44a.15.15,0,0,0,0-.21l-.31-.31a.16.16,0,0,1,0-.24l.31-.31a.16.16,0,0,0,0-.22l-.31-.31a.15.15,0,0,1,0-.23l.31-.32a.15.15,0,0,0,0-.21l-.44-.44v-.16ZM13.5,8.71a.66.66,0,1,1-.66.66.66.66,0,0,1,.66-.66Z"/><path id="fb7033ee-4650-4886-80c7-eddf62560f85" fill="#ff9300" d="M13,17h0a.14.14,0,0,0,.24-.11V14.33a.16.16,0,0,0-.06-.13h0a.14.14,0,0,0-.22.13v2.51A.15.15,0,0,0,13,17Z" opacity=".75"/><rect id="b166b8c2-b9ee-4c3d-bf7a-77bd5ce0570b" width="3.29" height=".39" x="11.9" y="10.9" fill="#ff9300" opacity=".75" rx=".18"/><rect id="baf437fe-3483-4a25-94ba-1e84a64cd2eb" width="3.29" height=".39" x="11.9" y="11.53" fill="#ff9300" opacity=".75" rx=".18"/></g></g></svg>