<svg xmlns="http://www.w3.org/2000/svg" xmlns:xlink="http://www.w3.org/1999/xlink" width="38" height="38" version="1.1" viewBox="0 0 38 38"><defs><radialGradient id="a" cx="261" cy="240" r="341" gradientTransform="matrix(1.3 .000949 -.00102 1.4 -89.2 -86.2)" gradientUnits="userSpaceOnUse"><stop offset="0" stop-color="#ff0"/><stop offset="1" stop-color="#fa0"/></radialGradient></defs><path fill="url(#a)" stroke="#000" stroke-linecap="round" stroke-linejoin="round" stroke-width="10.6" d="m250 3.16-227 123-0.42 247 227 124 227-123 0.42-247zm-0.711 97.9v0.006c3.78 0 7.6 0.297 11.5 0.875 41.1 6.17 72.2 40.6 66.4 70.5-5.8 29.8-33.3 56-40.1 61.7s37.1 165 37.1 165h-149s46.2-157 36.5-165c-9.7-8.14-41.2-36.9-36.4-68.9 4.81-32.1 37.6-64 74.2-64.1z" transform="matrix(.0709 0 0 .0709 1.4 1.38)"/></svg>