<svg xmlns="http://www.w3.org/2000/svg" id="b195302b-e778-4b96-bfb7-8807a5f658f3" width="18" height="18" viewBox="0 0 18 18"><defs><linearGradient id="a9fe2d6c-5ab5-424a-b9f8-0c4881eb70fd" x1="9" x2="9" y1=".81" y2="21.28" gradientUnits="userSpaceOnUse"><stop offset="0" stop-color="#ffd70f"/><stop offset=".34" stop-color="#eeb309"/><stop offset=".77" stop-color="#dc8c03"/><stop offset="1" stop-color="#d57d01"/></linearGradient></defs><title>Icon-iot-196</title><g><g><path fill="url(#a9fe2d6c-5ab5-424a-b9f8-0c4881eb70fd)" d="M17.5,2.5V13.33a.58.58,0,0,1-.59.58H12.39a.14.14,0,0,0-.14.14V15.8a.28.28,0,0,1-.45.22L9.08,13.94l-.09,0H1.09a.58.58,0,0,1-.59-.58V2.5a.58.58,0,0,1,.59-.58H16.91A.58.58,0,0,1,17.5,2.5Z"/><path fill="#ffe452" d="M2.05,9l3,2.52a.29.29,0,0,0,.47-.22v-1.1H17.48V8.5H2.23A.29.29,0,0,0,2.05,9Z"/><path fill="#fff" d="M16.24,6.46,13.13,3.94a.29.29,0,0,0-.47.22v1.1H.5V7H16.06A.29.29,0,0,0,16.24,6.46Z"/></g></g></svg>