<svg xmlns="http://www.w3.org/2000/svg" id="b8a5deb0-257d-4029-9ed0-a02518e9a519" width="18" height="18" viewBox="0 0 18 18"><title>Icon-iot-184</title><path fill="#a3a3a3" d="M9,0,1.15,4.49v3L4.2,9.34V7.54L2.6,6.62V5.38L9,1.68l6.4,3.71v7.18L9,16.27,1.15,11.78v1.68L9,18l7.85-4.49v-9Z"/><polygon fill="#949494" points="9 0 9 0 1.15 4.49 2.6 5.38 9 1.68 9 1.68 15.4 5.38 16.85 4.49 9 0"/><polygon fill="#32bedd" points="13.25 6.54 13.25 11.46 9 13.93 9 9.01 13.25 6.54"/><polygon fill="#9cebff" points="13.25 6.54 9 9.01 4.75 6.54 9 4.07 13.25 6.54"/><polygon fill="#50e6ff" points="9 9.01 9 13.93 4.75 11.46 4.75 6.54 9 9.01"/><polygon fill="#9cebff" points="4.75 11.46 9 9.01 9 13.93 4.75 11.46"/><polygon fill="#50e6ff" points="13.25 11.46 9 9.01 9 13.93 13.25 11.46"/></svg>