<svg xmlns="http://www.w3.org/2000/svg" id="e99aaeca-7da4-48f7-8c69-4f9fb31d7cf7" width="18" height="18" viewBox="0 0 18 18"><defs><linearGradient id="b221527c-9a9d-4fa7-808a-53af4b8654b1" x1="9" x2="9" y1="13.5" y2=".74" gradientUnits="userSpaceOnUse"><stop offset="0" stop-color="#0078d4"/><stop offset=".16" stop-color="#1380da"/><stop offset=".53" stop-color="#3c91e5"/><stop offset=".82" stop-color="#559cec"/><stop offset="1" stop-color="#5ea0ef"/></linearGradient></defs><title>Icon-storage-89</title><path fill="url(#b221527c-9a9d-4fa7-808a-53af4b8654b1)" d="M18,9.5a4.06,4.06,0,0,0-3.51-3.89A5.1,5.1,0,0,0,9.24.74a5.23,5.23,0,0,0-5,3.41A4.82,4.82,0,0,0,0,8.79,4.9,4.9,0,0,0,5.07,13.5l.44,0h8.21a1.46,1.46,0,0,0,.22,0A4.1,4.1,0,0,0,18,9.5Z"/><rect width="4.25" height=".9" x="9.23" y="16.36" fill="#198ab3" rx=".3"/><rect width="4.25" height=".9" x="9.23" y="14.45" fill="#32bedd" rx=".3"/><rect width="4.25" height=".9" x="9.23" y="12.55" fill="#50e6ff" rx=".3"/><rect width="4.25" height=".9" x="4.95" y="7.8" fill="#f2f2f2" rx=".3"/><rect width="4.25" height=".9" x="4.95" y="9.55" fill="#f2f2f2" rx=".3"/><rect width="4.25" height=".9" x="4.95" y="11.31" fill="#f2f2f2" rx=".3"/></svg>