<svg xmlns="http://www.w3.org/2000/svg" width="18" height="18" viewBox="0 0 18 18"><defs><linearGradient id="a790cec7-07c9-4638-b5c5-ab9fbd5ca908" x1="6.41" x2="6.41" y1="1.78" y2="14.13" gradientUnits="userSpaceOnUse"><stop offset="0" stop-color="#b3b2b3"/><stop offset=".38" stop-color="#afaeaf"/><stop offset=".76" stop-color="#a2a2a2"/><stop offset="1" stop-color="#979797"/></linearGradient><linearGradient id="b9e6ae88-e13e-4cbb-9678-9c3623cbd024" x1="7.85" x2="16.6" y1="13.09" y2="13.09" gradientUnits="userSpaceOnUse"><stop offset="0" stop-color="#005ba1"/><stop offset=".07" stop-color="#0060a9"/><stop offset=".36" stop-color="#0071c8"/><stop offset=".52" stop-color="#0078d4"/><stop offset=".64" stop-color="#0074cd"/><stop offset=".82" stop-color="#006abb"/><stop offset="1" stop-color="#005ba1"/></linearGradient></defs><title>Icon-integration-216</title><g><g id="e324a405-82e2-4fb6-93ca-106df2178669"><g><path fill="#999" d="M1.42,1.79l1-1.13A.48.48,0,0,1,2.75.5h9.31a.66.66,0,0,1,.71.67V12.79a.48.48,0,0,1-.16.35l-1,.95Z"/><path fill="#999" d="M1.42,1.79l1-1.13A.48.48,0,0,1,2.75.5h9.31a.66.66,0,0,1,.71.67V12.79a.48.48,0,0,1-.16.35l-1,.95Z" opacity=".5"/><path fill="#fff" d="M2.2,1.79l.59-.68A.44.44,0,0,1,3.11,1H11.8a.42.42,0,0,1,.42.42V12.43a.44.44,0,0,1-.13.31l-.93.85"/><path fill="url(#a790cec7-07c9-4638-b5c5-ab9fbd5ca908)" d="M11.1,1.78H1.45a0,0,0,0,0-.05,0v12a.31.31,0,0,0,.31.31H11.1a.31.31,0,0,0,.31-.31V2.09A.31.31,0,0,0,11.1,1.78Z"/><g><path fill="url(#b9e6ae88-e13e-4cbb-9678-9c3623cbd024)" d="M12.22,10.08c-2.41,0-4.37-.62-4.37-1.39v7.42c0,.76,1.92,1.38,4.31,1.39h.06c2.42,0,4.38-.62,4.38-1.39V8.69C16.6,9.46,14.64,10.08,12.22,10.08Z"/><path fill="#e8e8e8" d="M16.6,8.69c0,.77-2,1.39-4.38,1.39S7.85,9.46,7.85,8.69s2-1.4,4.37-1.4,4.38.63,4.38,1.4"/><path fill="#50e6ff" d="M15.58,8.58c0,.49-1.51.88-3.36.88s-3.35-.39-3.35-.88,1.5-.89,3.35-.89,3.36.4,3.36.89"/><path fill="#198ab3" d="M12.22,8.78a8.89,8.89,0,0,0-2.65.34,8.79,8.79,0,0,0,2.65.34,8.86,8.86,0,0,0,2.66-.34A9,9,0,0,0,12.22,8.78Z"/></g></g></g></g></svg>