<svg xmlns="http://www.w3.org/2000/svg" fill="none" class="jfTab-item-icon forInbox IconProductInboxColorBorder--svg" name="IconProductInboxColorBorder" role="presentation" viewBox="0 0 24 24"><path fill="#C8CEED" d="M2 19.273v-8.408c0-.366.41-.582.712-.374l7.74 5.332a2.727 2.727 0 0 0 3.095 0l7.74-5.332a.455.455 0 0 1 .713.374v8.408A2.727 2.727 0 0 1 19.273 22H4.727A2.727 2.727 0 0 1 2 19.273Z"/><path fill="#fff" fill-rule="evenodd" d="m4 10.128 6.453 4.445a2.727 2.727 0 0 0 3.094 0L20 10.128v-5.4A2.727 2.727 0 0 0 17.273 2H6.727A2.727 2.727 0 0 0 4 4.727v5.4Z" clip-rule="evenodd"/><path fill="#C8CEED" d="M4 8.89V5a2 2 0 0 1 2-2h12a2 2 0 0 1 2 2v5.11l.574-.402a1 1 0 0 0 .426-.82V5a3 3 0 0 0-3-3H6a3 3 0 0 0-3 3v3.889a1 1 0 0 0 .426.819L4 10.11V8.89Z"/><path fill="#09F" d="M7 6a1 1 0 0 1 1-1h8a1 1 0 1 1 0 2H8a1 1 0 0 1-1-1Z"/><path fill="#FF6100" d="M7 10a1 1 0 0 1 1-1h5.273a1 1 0 1 1 0 2H8a1 1 0 0 1-1-1Z"/><path fill="#FFB629" d="M14.927 9.509a1 1 0 0 1 1-1h.072a1 1 0 0 1 0 2h-.072a1 1 0 0 1-1-1Z"/></svg>