<svg xmlns="http://www.w3.org/2000/svg" xmlns:xlink="http://www.w3.org/1999/xlink" id="Layer_1" x="0" y="0" version="1.1" viewBox="0 0 120 120" xml:space="preserve" style="enable-background:new 0 0 120 120"><style type="text/css">.st0{fill:#f4f5f7}.st1{opacity:.3}.st2{fill:#b3bac5}.st3{opacity:.6;fill:url(#SVGID_1_);enable-background:new}.st4{fill:url(#SVGID_2_)}.st5{fill:#fff}</style><g><rect width="117" height="110.1" x="1.8" y="4.9" class="st0"/><g class="st1"><path d="M120,116.5h-5.3c-0.8,0-1.5-0.7-1.5-1.5s0.7-1.5,1.5-1.5h2.3v-2.3c0-0.8,0.7-1.5,1.5-1.5 c0.8,0,1.5,0.7,1.5,1.5V116.5z" class="st2"/><path d="M107.4,116.5h-7.3c-0.8,0-1.5-0.7-1.5-1.5s0.7-1.5,1.5-1.5h7.3c0.8,0,1.5,0.7,1.5,1.5 S108.2,116.5,107.4,116.5z M92.8,116.5h-7.3c-0.8,0-1.5-0.7-1.5-1.5s0.7-1.5,1.5-1.5h7.3c0.8,0,1.5,0.7,1.5,1.5 S93.6,116.5,92.8,116.5z M78.2,116.5h-7.3c-0.8,0-1.5-0.7-1.5-1.5s0.7-1.5,1.5-1.5h7.3c0.8,0,1.5,0.7,1.5,1.5 S79.1,116.5,78.2,116.5z M63.6,116.5h-7.3c-0.8,0-1.5-0.7-1.5-1.5s0.7-1.5,1.5-1.5h7.3c0.8,0,1.5,0.7,1.5,1.5 S64.5,116.5,63.6,116.5z M49.1,116.5h-7.3c-0.8,0-1.5-0.7-1.5-1.5s0.7-1.5,1.5-1.5h7.3c0.8,0,1.5,0.7,1.5,1.5 S49.9,116.5,49.1,116.5z M34.5,116.5h-7.3c-0.8,0-1.5-0.7-1.5-1.5s0.7-1.5,1.5-1.5h7.3c0.8,0,1.5,0.7,1.5,1.5 S35.3,116.5,34.5,116.5z M19.9,116.5h-7.3c-0.8,0-1.5-0.7-1.5-1.5s0.7-1.5,1.5-1.5h7.3c0.8,0,1.5,0.7,1.5,1.5 S20.7,116.5,19.9,116.5z" class="st2"/><path d="M5.3,116.5H0v-5.3c0-0.8,0.7-1.5,1.5-1.5s1.5,0.7,1.5,1.5v2.3h2.3c0.8,0,1.5,0.7,1.5,1.5S6.1,116.5,5.3,116.5 z" class="st2"/><path d="M1.5,104.8c-0.8,0-1.5-0.7-1.5-1.5v-7.9C0,94.7,0.7,94,1.5,94S3,94.7,3,95.5v7.9C3,104.2,2.3,104.8,1.5,104.8 z M1.5,89.1c-0.8,0-1.5-0.7-1.5-1.5v-7.9c0-0.8,0.7-1.5,1.5-1.5S3,78.9,3,79.7v7.9C3,88.4,2.3,89.1,1.5,89.1z M1.5,73.3 c-0.8,0-1.5-0.7-1.5-1.5v-7.9c0-0.8,0.7-1.5,1.5-1.5S3,63.1,3,63.9v7.9C3,72.6,2.3,73.3,1.5,73.3z M1.5,57.5 c-0.8,0-1.5-0.7-1.5-1.5v-7.9c0-0.8,0.7-1.5,1.5-1.5S3,47.4,3,48.2v7.9C3,56.9,2.3,57.5,1.5,57.5z M1.5,41.8 c-0.8,0-1.5-0.7-1.5-1.5v-7.9c0-0.8,0.7-1.5,1.5-1.5S3,31.6,3,32.4v7.9C3,41.1,2.3,41.8,1.5,41.8z M1.5,26C0.7,26,0,25.3,0,24.5 v-7.9c0-0.8,0.7-1.5,1.5-1.5S3,15.8,3,16.6v7.9C3,25.3,2.3,26,1.5,26z" class="st2"/><path d="M1.5,10.2C0.7,10.2,0,9.6,0,8.8V3.5h5.3c0.8,0,1.5,0.7,1.5,1.5S6.1,6.4,5.3,6.4H3v2.3 C3,9.6,2.3,10.2,1.5,10.2z" class="st2"/><path d="M107.4,6.4h-7.3c-0.8,0-1.5-0.7-1.5-1.5s0.7-1.5,1.5-1.5h7.3c0.8,0,1.5,0.7,1.5,1.5S108.2,6.4,107.4,6.4z M92.8,6.4h-7.3c-0.8,0-1.5-0.7-1.5-1.5s0.7-1.5,1.5-1.5h7.3c0.8,0,1.5,0.7,1.5,1.5S93.6,6.4,92.8,6.4z M78.2,6.4h-7.3 c-0.8,0-1.5-0.7-1.5-1.5s0.7-1.5,1.5-1.5h7.3c0.8,0,1.5,0.7,1.5,1.5S79.1,6.4,78.2,6.4z M63.6,6.4h-7.3c-0.8,0-1.5-0.7-1.5-1.5 s0.7-1.5,1.5-1.5h7.3c0.8,0,1.5,0.7,1.5,1.5S64.5,6.4,63.6,6.4z M49.1,6.4h-7.3c-0.8,0-1.5-0.7-1.5-1.5s0.7-1.5,1.5-1.5h7.3 c0.8,0,1.5,0.7,1.5,1.5S49.9,6.4,49.1,6.4z M34.5,6.4h-7.3c-0.8,0-1.5-0.7-1.5-1.5s0.7-1.5,1.5-1.5h7.3c0.8,0,1.5,0.7,1.5,1.5 S35.3,6.4,34.5,6.4z M19.9,6.4h-7.3c-0.8,0-1.5-0.7-1.5-1.5s0.7-1.5,1.5-1.5h7.3c0.8,0,1.5,0.7,1.5,1.5S20.7,6.4,19.9,6.4z" class="st2"/><path d="M118.5,10.2c-0.8,0-1.5-0.7-1.5-1.5V6.4h-2.3c-0.8,0-1.5-0.7-1.5-1.5s0.7-1.5,1.5-1.5h5.3v5.3 C120,9.6,119.3,10.2,118.5,10.2z" class="st2"/><path d="M118.5,104.8c-0.8,0-1.5-0.7-1.5-1.5v-7.9c0-0.8,0.7-1.5,1.5-1.5c0.8,0,1.5,0.7,1.5,1.5v7.9 C120,104.2,119.3,104.8,118.5,104.8z M118.5,89.1c-0.8,0-1.5-0.7-1.5-1.5v-7.9c0-0.8,0.7-1.5,1.5-1.5c0.8,0,1.5,0.7,1.5,1.5v7.9 C120,88.4,119.3,89.1,118.5,89.1z M118.5,73.3c-0.8,0-1.5-0.7-1.5-1.5v-7.9c0-0.8,0.7-1.5,1.5-1.5c0.8,0,1.5,0.7,1.5,1.5v7.9 C120,72.6,119.3,73.3,118.5,73.3z M118.5,57.5c-0.8,0-1.5-0.7-1.5-1.5v-7.9c0-0.8,0.7-1.5,1.5-1.5c0.8,0,1.5,0.7,1.5,1.5v7.9 C120,56.9,119.3,57.5,118.5,57.5z M118.5,41.8c-0.8,0-1.5-0.7-1.5-1.5v-7.9c0-0.8,0.7-1.5,1.5-1.5c0.8,0,1.5,0.7,1.5,1.5v7.9 C120,41.1,119.3,41.8,118.5,41.8z M118.5,26c-0.8,0-1.5-0.7-1.5-1.5v-7.9c0-0.8,0.7-1.5,1.5-1.5c0.8,0,1.5,0.7,1.5,1.5v7.9 C120,25.3,119.3,26,118.5,26z" class="st2"/></g><linearGradient id="SVGID_1_" x1="36.615" x2="72.381" y1="166.49" y2="130.725" gradientTransform="matrix(1 0 0 1 0 -85)" gradientUnits="userSpaceOnUse"><stop offset="0" style="stop-color:#c1c7d0;stop-opacity:.1"/><stop offset=".04" style="stop-color:#c1c7d0;stop-opacity:.25"/><stop offset=".09" style="stop-color:#c1c7d0;stop-opacity:.43"/><stop offset=".14" style="stop-color:#c1c7d0;stop-opacity:.58"/><stop offset=".21" style="stop-color:#c1c7d0;stop-opacity:.71"/><stop offset=".28" style="stop-color:#c1c7d0;stop-opacity:.82"/><stop offset=".36" style="stop-color:#c1c7d0;stop-opacity:.9"/><stop offset=".46" style="stop-color:#c1c7d0;stop-opacity:.96"/><stop offset=".6" style="stop-color:#c1c7d0;stop-opacity:.99"/><stop offset="1" style="stop-color:#c1c7d0"/></linearGradient><circle cx="54.5" cy="63.6" r="25.3" class="st3"/><g><linearGradient id="SVGID_2_" x1="36.883" x2="60.622" y1="168.406" y2="144.668" gradientTransform="matrix(1 0 0 1 0 -85)" gradientUnits="userSpaceOnUse"><stop offset="0" style="stop-color:#0052cc"/><stop offset="1" style="stop-color:#2684ff"/></linearGradient><circle cx="60.3" cy="60" r="25.3" class="st4"/><path id="_Clipping_Path__14_" d="M73.8,62.3v-4.6c0-0.7-0.5-1.2-1.2-1.2h-8.7v-8.6c0-0.7-0.6-1.2-1.2-1.2 c0,0,0,0,0,0H58c-0.7,0-1.2,0.5-1.2,1.2c0,0,0,0,0,0l0,0v8.6h-8.6c-0.7,0-1.2,0.5-1.2,1.2l0,0v4.6c0,0.7,0.5,1.2,1.2,1.2h8.6v8.6 c0,0.7,0.5,1.2,1.2,1.2h4.6c0.7,0,1.2-0.6,1.2-1.3v-8.6h8.6C73.2,63.5,73.7,63,73.8,62.3C73.8,62.3,73.8,62.3,73.8,62.3L73.8,62.3 z" class="st5"/></g></g></svg>