<svg xmlns="http://www.w3.org/2000/svg" xmlns:xlink="http://www.w3.org/1999/xlink" id="Layer_1" x="0" y="0" version="1.1" viewBox="0 0 364.8 360" xml:space="preserve" style="enable-background:new 0 0 364.8 360"><style type="text/css">.st0{opacity:.6;fill:url(#SVGID_1_)}.st1{fill:#fff}.st2{fill:url(#SVGID_2_)}.st3{opacity:.3;fill:#091e42}.st4{fill:#cea28b}.st5{fill:url(#SVGID_3_)}.st6{fill:url(#SVGID_4_)}.st7{fill:#f1dad5}.st8{fill:#505f79}.st9{fill:#57d9a3}.st10{opacity:.5}.st11{fill:#abf5d1}.st12{fill:url(#SVGID_5_)}.st13{opacity:.33;fill:#57d9a3}.st14{opacity:.8}.st15{fill:url(#SVGID_6_)}.st16{opacity:.5;fill:#e3fcef}.st17{fill:#d1d6dc}.st18{fill:#ebecf0}.st19{fill:url(#SVGID_7_)}.st20{fill:#f0d0b4}.st21{fill:#4c9aff}.st22{fill:#253858}.st23{fill:url(#SVGID_8_)}.st24{fill:#172b4d}.st25{fill:#ffc400}.st26{fill:#b3bac5}.st27{fill:#fafbfc}.st28{fill:url(#_Polygon_3_1_)}.st29{fill:url(#SVGID_9_)}.st30{fill:url(#SVGID_10_)}.st31{fill:#344563}.st32{opacity:.15;fill:url(#SVGID_11_)}.st33{fill:#2684ff}.st34{fill:#b2d4ff}.st35{opacity:.15;fill:url(#SVGID_12_)}</style><g><radialGradient id="SVGID_1_" cx="-8466.999" cy="8160.218" r="152.584" gradientTransform="matrix(0.5139 0.8579 -0.8579 0.5139 11550.2246 3250.0959)" gradientUnits="userSpaceOnUse"><stop offset="0" style="stop-color:#4085f7"/><stop offset=".172" style="stop-color:#4387f7;stop-opacity:.8282"/><stop offset=".318" style="stop-color:#4e8df6;stop-opacity:.6819"/><stop offset=".455" style="stop-color:#5f98f4;stop-opacity:.5448"/><stop offset=".587" style="stop-color:#78a7f2;stop-opacity:.4134"/><stop offset=".714" style="stop-color:#98bbef;stop-opacity:.286"/><stop offset=".838" style="stop-color:#c0d3eb;stop-opacity:.1616"/><stop offset=".958" style="stop-color:#edefe7;stop-opacity:4.183835e-02"/><stop offset="1" style="stop-color:#fffae5;stop-opacity:0"/></radialGradient><circle cx="198.8" cy="180" r="152.6" class="st0"/><circle cx="198.8" cy="180" r="102.8" class="st1"/><circle cx="198.8" cy="180" r="72.7" class="st1"/><circle cx="198.8" cy="180" r="45" class="st1"/><g><linearGradient id="SVGID_2_" x1="369.295" x2="437.811" y1="329.063" y2="260.546" gradientTransform="matrix(1 -8.290194e-03 8.290194e-03 1 -259.4003 -58.8499)" gradientUnits="userSpaceOnUse"><stop offset="0" style="stop-color:#0052cc"/><stop offset="1" style="stop-color:#2684ff"/></linearGradient><circle cx="198.6" cy="179.7" r="73.2" class="st2"/><path id="_Clipping_Path__3_" d="M237.5,186.2l-0.1-13.3c0-1.9-1.5-3.5-3.5-3.6l-25,0.2l-0.2-24.9 c0-2-1.6-3.6-3.6-3.5c0,0,0,0,0,0l-13.3,0.1c-2,0-3.6,1.6-3.6,3.6c0,0,0,0,0,0l0,0l0.2,24.9l-24.8,0.2c-2,0-3.6,1.6-3.6,3.6l0,0 l0.1,13.3c0,2,1.6,3.6,3.6,3.6l24.9-0.2l0.2,24.9c0,2,1.6,3.6,3.6,3.6l13.3-0.1c2-0.1,3.5-1.7,3.5-3.7l-0.2-24.9l24.9-0.2 C235.8,189.7,237.4,188.2,237.5,186.2C237.5,186.2,237.5,186.2,237.5,186.2L237.5,186.2z" class="st1"/></g><path d="M139,151.5H72.9c-0.2,0-0.4-0.2-0.4-0.4v-30.9c0-0.2,0.2-0.4,0.4-0.4H139c0.2,0,0.4,0.2,0.4,0.4v30.9 C139.3,151.3,139.2,151.5,139,151.5z" class="st3"/><path d="M104.4,151.9c0.3-0.3,0.7-0.6,1-1c0.9-0.9,1.5-1.9,1.8-2.6c0.3-0.4,0.1-0.9-0.2-1.1c-0.2-0.1-0.5,0-0.7,0.2 c-0.2,0-0.3,0-0.4,0c-0.7,0.1-1.1,0.9-1.2,1c-0.2,0.2-0.3,0.3-0.5,0.5c0-0.2-0.1-0.4-0.1-0.6c0,0-0.1-0.3-0.3-0.5 c-0.2-0.1-0.4-0.1-0.5-0.1l0.1,0.9l-0.4,2.3L104.4,151.9z" class="st4"/><linearGradient id="SVGID_3_" x1="142.791" x2="142.791" y1="77.42" y2="77.42" gradientUnits="userSpaceOnUse"><stop offset=".124" style="stop-color:#dfe1e5"/><stop offset="1" style="stop-color:#f4f5f7"/></linearGradient><path d="M142.8,77.4" class="st5"/><linearGradient id="SVGID_4_" x1="69.781" x2="69.781" y1="54.252" y2="54.252" gradientUnits="userSpaceOnUse"><stop offset=".124" style="stop-color:#dfe1e5"/><stop offset="1" style="stop-color:#f4f5f7"/></linearGradient><path d="M69.8,54.3" class="st6"/><path d="M323.6,212.1" class="st7"/><path d="M328,231.8c0,0,0.1-0.1,0.1-0.1c0.2,0,0.3,0.4,0.4,0.6c0.3,0.6,0.3,1.2,0.5,2.1c0,0.2,0.1,0.5,0.1,1 c-0.1,0.1-0.4,0.4-0.8,0.3c-0.5,0-0.9-0.6-1-1c-0.1-0.4,0.1-0.6,0-1.2c0,0,0-0.2-0.1-0.6c0-0.1-0.1-0.4,0-0.4 c0.1,0,0.2,0.1,0.3,0.2c0.2,0.2,0.1,0.3,0.3,0.6c0,0,0.2,0.2,0.2,0.2c0,0,0.1-0.2-0.1-0.8c-0.3-0.6-0.4-0.9-0.3-1 C327.7,231.6,327.8,231.6,328,231.8z" class="st7"/><path d="M325.2,235.4c0.5,2.2,1.4,5.1,3,8.3c1.3,2.5,2.7,4.5,4,6.1c0.4,0.2,6.4,2.9,9.4,0.1c1.2-1.1,2-3.2,1.4-4 c-0.4-0.5-1.3-0.2-2.5,0c-1.5,0.3-3.7,0.7-6.6,1c-0.9-1.2-1.8-2.5-2.7-3.9c-1.8-2.7-3.4-5.4-4.7-7.9 C326,235.2,325.6,235.3,325.2,235.4z" class="st7"/><g><rect width="61.2" height="50.4" x="271.5" y="179.2" class="st1"/><rect width="64.5" height="50.9" x="270.8" y="178.1" class="st8"/><rect width="50.7" height="63.1" x="276.6" y="172.6" class="st9" transform="matrix(6.123234e-17 -1 1 6.123234e-17 97.7604 506.0873)"/><g class="st10"><rect width=".6" height="50.2" x="270.6" y="178.9" class="st11"/><rect width=".6" height="50.2" x="283.1" y="178.9" class="st11"/><rect width=".6" height="50.2" x="295.7" y="178.9" class="st11"/><rect width=".6" height="50.2" x="308.2" y="178.9" class="st11"/><rect width=".6" height="50.2" x="320.8" y="178.9" class="st11"/><rect width=".6" height="50.2" x="333.3" y="178.9" class="st11"/><rect width="62.7" height=".6" x="270.8" y="228.8" class="st11"/><rect width="62.7" height=".6" x="270.8" y="216.2" class="st11"/><rect width="62.7" height=".6" x="270.8" y="203.7" class="st11"/><rect width="62.7" height=".6" x="270.8" y="191.1" class="st11"/><rect width="62.7" height=".6" x="270.8" y="178.6" class="st11"/></g><path d="M339.4,222.4v-46c0-1.7-1.7-4.2-3.8-4.2h-68.2c-2.1,0-5.5,0.6-5.5,4.8v46.7c-0.1,0.2-0.1,0.5-0.1,0.7v12.4 c0,1.9,1.5,3.4,3.4,3.4H336c1.6,0,3.4-1.3,3.4-2.9v-13.4C339.4,223.3,339.4,223,339.4,222.4z M332.6,178v43h-63.5v-43H332.6z" class="st3"/><g><linearGradient id="SVGID_5_" x1="12843.059" x2="12891.808" y1="-2127.082" y2="-2162.013" gradientTransform="matrix(0 -1 1 0 2441.5027 13064.5146)" gradientUnits="userSpaceOnUse"><stop offset="0" style="stop-color:#ebecf0"/><stop offset=".129" style="stop-color:#e9eaee"/><stop offset="1" style="stop-color:#dfe1e5"/></linearGradient><path d="M340,175.7v57.2c0,2.1-1.7,3.8-3.8,3.8h-68c-2.1,0-3.8-1.7-3.8-3.8v-57.2c0-2.1,1.7-3.8,3.8-3.8h68 C338.3,171.9,340,173.6,340,175.7z M332.7,229v-49.8h-61.2V229H332.7z" class="st12"/></g><rect width="49.7" height="61" x="277.2" y="173.7" class="st13" transform="matrix(6.123234e-17 -1 1 6.123234e-17 97.9015 506.2377)"/><g class="st14"><radialGradient id="SVGID_6_" cx="321.246" cy="209.105" r="4.177" gradientUnits="userSpaceOnUse"><stop offset=".314" style="stop-color:#57d9a3"/><stop offset=".729" style="stop-color:#6febb7;stop-opacity:.3946"/><stop offset="1" style="stop-color:#79f2c0;stop-opacity:0"/></radialGradient><circle cx="321.2" cy="209.1" r="4.2" class="st15"/><circle cx="321.2" cy="209.1" r="1.6" class="st16"/></g><path d="M261.8,228.4" class="st17"/><path d="M322.1,232.6" class="st18"/><path d="M329.6,226.3" class="st18"/><radialGradient id="SVGID_7_" cx="302.532" cy="203.091" r="27.59" gradientUnits="userSpaceOnUse"><stop offset=".314" style="stop-color:#57d9a3"/><stop offset=".729" style="stop-color:#6febb7;stop-opacity:.3946"/><stop offset="1" style="stop-color:#79f2c0;stop-opacity:0"/></radialGradient><polygon points="298.4 220.8 292.8 200 289.5 209.5 267.8 209.5 267.8 208.7 288.9 208.7 292.8 197.2 298.3 217.3 305.2 185.3 311.9 208.7 337.3 208.7 337.3 209.6 311.3 209.6 305.3 188.7" class="st19"/></g><g><path d="M330.2,296.9c0,0-0.2-0.3-1.9-0.8c-1.7-0.4-2.5-0.3-2.5-0.3s0.2,0.8,1.5,1.3 C328.6,297.6,330.2,296.9,330.2,296.9z" class="st8"/><path d="M342.2,294.1c0,0-0.7-0.3-2.2-0.2c-1.5,0.1-2.3,0.5-2.3,0.5s0.5,1.1,2.5,1S342.2,294.1,342.2,294.1z" class="st8"/><path d="M316.8,238c0.8,0.7,1.6,1.3,2.1,1.6c1.3,1,2,1.3,2.8,2.2c0.5,0.6,0.9,1.2,1.1,1.5c0.8,0.6,1.6,1.2,2.4,1.8 c0,0.1-0.1,0.2-0.2,0.4c-0.2,0.2-1,1.5-2.2,1.5c-0.9,0-1.6-0.7-1.7-0.9c-1.7-2.4-3.4-4.9-5.1-7.3 C316.2,238.5,316.5,238.3,316.8,238z" class="st7"/><path d="M341.8,258.1c-0.1-0.3-0.2-0.6-0.4-0.9c-0.2-0.4-0.4-0.7-0.6-1c-0.2,0.1-0.5,0.2-1,0.3 c-0.4,0.1-0.7,0.1-0.8,0.2c-0.9,0.2-2.5,0.5-7,1.1c-0.2,0.3-0.5,0.6-0.8,1.1c-1.1,1.7-1.4,3.2-1.5,3.9 c-2.3,11.3-2.6,15.7-2.6,15.7s-0.7,8.3-1.2,17.7c0,0,1,0.6,2,0.9c0.4,0.1,0.9,0.2,1.5,0.2c0.7-1.3,1.5-3.1,2-5.3 c0.8-3.5,0.5-6.5,0.2-8.3c0.2-1.7,0.7-4.1,1.6-6.9c0.5-1.6,2.2-6.7,3.2-6.6c1,0.1,0.5,4.9,1.1,13.7c0.3,4.8,0.6,8.7,0.8,11.2 c0.3,0.1,1.1,0.5,2.1,0.1c1-0.4,1.3-0.8,1.3-0.8c0.1-1,0.3-2.5,0.4-4.3c0-0.8,0-1.4,0-2.3c0-1.5-0.1-3.6-0.2-6.2 c0.1-5.3,0.1-7.1,0.1-7.6c0-0.1,0-0.7,0-1.4c0-0.2,0-0.3,0.1-0.6c0.2-1.6,1.2-8.5,0.6-11C342.4,259.8,342.1,258.8,341.8,258.1z" class="st20"/><path d="M342.1,289.2c0,0.3,0,0.6,0,0.9c-0.1,1.8-0.3,3.3-0.4,4.3c0,0-0.3,0.4-1.3,0.8c-1,0.4-1.8,0.1-2.1-0.1 c-0.1-1.5-0.3-3.4-0.4-5.6L342.1,289.2z" class="st21"/><path d="M331.8,290c-0.1,0.7-0.2,1.3-0.4,2c-0.5,2.2-1.3,4-2,5.3c-0.7,0-1.2-0.1-1.5-0.2c-1-0.3-2-0.8-2-0.9 c0.1-2,0.2-4,0.4-5.8C328.2,290.3,330,290.1,331.8,290z" class="st21"/><path d="M325.9,293.9c0.6,0.4,1.4,0.8,2.6,1.1c0.8,0.2,1.5,0.2,2.1,0.2c-0.5,1.6-0.9,2.9-1.2,3.8 c-0.7,1.9-1.3,3.2-1.5,5.2c0,0.4-0.1,0.8-0.1,1l-2.2,0c-0.1-0.1-0.2-0.2-0.4-0.3c-0.2,0.1-0.4,0.2-0.6,0.3l-3.3-0.1 c-0.4,0-0.6-0.3-0.5-0.6c2.3-0.4,3.2-1.4,3.5-2c0.3-0.4,0.5-1.2,0.8-2.9c0.5-2.4,0.7-3.1,0.7-3.9 C325.9,295,325.9,294.3,325.9,293.9z" class="st22"/><path d="M342.2,294.1c-0.5,0.2-1.3,0.5-2.3,0.5c-1,0-1.7-0.1-2.2-0.3c0.2,0.4,2.4,6.4-0.2,8.8 c-0.2,0.2-0.5,0.4-0.9,0.6c-0.1,0.3-0.1,0.5-0.2,0.8c0.8,0.1,1.7,0.2,2.5,0.3c0.1-0.1,0.3-0.2,0.4-0.3c0.4,0.2,0.8,0.4,1.2,0.6 c0.4-0.1,0.8-0.1,1.2-0.2c0-0.3,0-0.7,0-1.1c0-0.8,0.1-1.4,0.1-1.5C341.8,301.5,342,299.4,342.2,294.1z" class="st22"/><linearGradient id="SVGID_8_" x1="324.205" x2="347.721" y1="269.85" y2="269.85" gradientUnits="userSpaceOnUse"><stop offset="0" style="stop-color:#ff8b00"/><stop offset=".088" style="stop-color:#ff9600"/><stop offset=".245" style="stop-color:#ffa200"/><stop offset=".461" style="stop-color:#ffa900"/><stop offset="1" style="stop-color:#ffab00"/></linearGradient><path d="M342.2,258.2c0.8,2.4,1.6,5,2.3,7.6c1.4,4.9,2.4,9.6,3.2,14c-0.7,0.4-1.8,1-3.2,1.6 c-7.4,2.9-14.2,0.6-15.4,0.2c-1.2-0.4-3-1.2-4.9-2.5c1.2-7.2,2.4-12.5,2.8-13.8c0.4-1.3,0.8-2.3,1.4-3.5c1.2-2.3,2.6-3.9,3.6-5 L342.2,258.2z" class="st23"/><path d="M340.3,234.8c-0.7-1.1-2.8-1.4-4-0.8c0,0-0.1,0.1-0.4,0.2c-1.8,1.3-3.3,2.4-3.4,3.9c0,0.3,0,0.6,0,0.8 c-0.3,0-0.7,0.1-1,0.4c-0.8,0.7-0.8,2.1-0.3,3c0.7,1.3,2.6,1.7,3.8,1.3c0.3-0.1,0.6-0.3,0.6-0.3c0.2-0.2,0.6-0.5,1-0.9 C338.5,240.5,341.4,236.6,340.3,234.8z" class="st24"/><path d="M337.8,234.2c-0.9,0.5-2.1,1.6-2.6,2.2c-0.1,0.1-0.1,0.2-0.4,0.2c-0.3,0.1-0.7,0-0.6,0.2 c0,0.2,0.3,0.6,0.3,0.8l-1,2c-0.1,0.3-0.1,0.6,0.2,0.8l0.5,0.4l3.1,2.5c-0.1-1.3-0.2-2.8-0.1-4.3c0-0.3,0-0.5,0.1-0.8 c-0.2-0.3-0.4-0.8-0.4-1.6c0-0.1,0-0.8,0.4-1.5C337.4,234.6,337.6,234.3,337.8,234.2z" class="st7"/><path d="M334.9,245.1l4.4,0.1c-0.1-0.6-0.2-1.4-0.1-2.3c0-0.9,0.1-1.7,0.3-2.3c-1.5,0-2.9-0.1-4.4-0.1L334.9,245.1z" class="st7"/><path d="M321.1,245.3C321.1,245.3,321.1,245.3,321.1,245.3c-0.1-1.3,1-2.3,2.3-2c1,0.2,2.2,0.4,3.5,0.5 c0.8,0.1,2.2,0.2,4.9,0.2c3.9,0,6.3-0.2,9.2,0.7c0.6,0.2,1.3,0.4,1.7,1c0.9,1.3,0,3.2-0.5,4.8c-0.5,1.7-0.9,4.4,0.2,8.1 c-2.3,0.4-2.9,0.6-5.7,0.8c-4.6,0.3-6.2-0.6-6.2-0.6s0.1-2.4-0.3-4.9c-0.3-1.5-0.6-2.1-0.4-3.1c0.1-0.8,0.4-1.4,0.7-1.8 c-1.6-0.3-3.8-0.7-6.4-1.5c-0.5-0.1-1-0.3-1.6-0.5C321.6,246.8,321.1,246.1,321.1,245.3z" class="st7"/><path d="M322.2,247c0-0.5-0.1-1-0.1-1.4c-0.1-1.2,1-2.2,2.3-2c0.7,0.1,1.6,0.2,2.4,0.3c1.7,0.2,3,0.2,4.9,0.2 c3.5,0,7-0.3,9.4,0.5c0.3,0.1,0.9,0.3,1.3,0.8c0.2,0.2,0.6,0.8,0.7,2.4c0,1.5-0.3,2.6-0.4,2.6c-0.4,1.3-0.8,3.6-0.5,8.3 c-2.3,0.4-2.9,0.6-5.7,0.8c-4.6,0.3-6.2-0.6-6.2-0.6s0.1-2.4-0.3-4.9c-0.3-1.5-0.6-2.1-0.4-3.1c0.1-0.8,0.4-1.4,0.7-1.8 c-1.6-0.3-3.8-0.7-6.4-1.5C323.4,247.4,322.9,247.2,322.2,247z" class="st25"/><path d="M338.3,234.2c-0.7,1-0.7,1.8-0.7,2.6c-0.1,1.4-0.8,1.9-1.5,4c-0.5,1.5-0.8,2.3-0.5,2.9 c0.7,2,4.6,3.3,6.2,1.7c0.9-0.9,0.7-2.4,0.6-2.9c0.4-0.6,1-1.8,1-3.3c0-0.5,0-0.9-0.1-1.1C343,236.7,341.1,233.9,338.3,234.2z" class="st24"/></g><path d="M313.2,235.8c-0.1,0-0.1,0-0.2,0c-0.1,0.1,0.2,0.5,0.3,0.7c0.5,0.6,0.9,1,1.7,1.6c0.2,0.1,0.5,0.4,0.8,0.7 c0.1,0,0.6-0.2,0.8-0.6c0.3-0.5,0-1.2-0.4-1.5c-0.4-0.4-0.6-0.2-1.1-0.7c0,0-0.2-0.1-0.5-0.4c-0.1-0.1-0.3-0.3-0.4-0.2 c-0.1,0,0,0.2,0,0.3c0.1,0.3,0.3,0.3,0.4,0.6c0,0,0.1,0.3,0.1,0.3c0,0-0.2,0-0.7-0.5c-0.4-0.6-0.7-0.9-0.8-0.8 C313.2,235.4,313.1,235.6,313.2,235.8z" class="st7"/><g><g id="Layer_2_1_"><g id="Objects_2_"><path d="M136.8,116.4l-24.9-20c-4.2-3.4-10.2-3.4-14.4,0l-24.9,20h0v32.2h64.3L136.8,116.4L136.8,116.4z" class="st26"/><rect width="48.7" height="39.4" x="80.1" y="100.5" class="st27"/><rect width="48.7" height="3.6" x="80.1" y="99.6" class="st9"/></g></g><g><linearGradient id="_Polygon_3_1_" x1="28150.139" x2="28123.422" y1="12832.88" y2="12820.42" gradientTransform="matrix(-1 0 0 -1 28244.9531 12953.0645)" gradientUnits="userSpaceOnUse"><stop offset="0" style="stop-color:#ffd640"/><stop offset="1" style="stop-color:#fa0"/></linearGradient><path id="_Polygon_3_2_" d="M103.5,108.1c1.4-0.8,3.2-0.3,4.1,1.1l13,22.5c0.3,0.5,0.4,1,0.4,1.5c0,1.6-1.3,3-3,3 H92c-0.5,0-1-0.1-1.5-0.4c-1.4-0.8-1.9-2.6-1.1-4.1l13-22.5C102.7,108.7,103.1,108.4,103.5,108.1z" class="st28"/><path d="M105.2,126.7L105.2,126.7c0.6,0,1.2-0.5,1.2-1.2l0.6-8.7c0,0,0-0.1,0-0.1c0-1-0.8-1.8-1.8-1.8l0,0 c0,0-0.1,0-0.1,0c-1,0.1-1.7,0.9-1.7,1.9l0.6,8.7C104,126.2,104.5,126.7,105.2,126.7z" class="st22"/><path d="M105.2,128.2c-1,0-1.8,0.7-1.9,1.8c-0.1,1,0.7,1.9,1.7,2c0.1,0,0.1,0,0.2,0c1,0,1.9-0.9,1.8-1.9 C107,129.1,106.2,128.2,105.2,128.2z" class="st22"/></g><g><linearGradient id="SVGID_9_" x1="104.746" x2="104.746" y1="12802.143" y2="12834.307" gradientTransform="matrix(1 0 0 -1 0 12951.1748)" gradientUnits="userSpaceOnUse"><stop offset="0" style="stop-color:#c3c9d2"/><stop offset=".191" style="stop-color:#c1c7d0"/><stop offset=".294" style="stop-color:#c5cbd3"/><stop offset="1" style="stop-color:#dfe1e5"/></linearGradient><path d="M137,149c-10.9,0-17.9-1.8-22.2-4.3c-10-5.8-11.3-14.1-21.8-21.1c-7.4-4.9-15.4-6.3-20.6-6.8V149L137,149z" class="st29"/><linearGradient id="SVGID_10_" x1="72.707" x2="137.035" y1="132.95" y2="132.95" gradientUnits="userSpaceOnUse"><stop offset="0" style="stop-color:#ebecf0"/><stop offset=".001" style="stop-color:#e6e8ec"/><stop offset=".008" style="stop-color:#cbd0d8"/><stop offset=".012" style="stop-color:#c1c7d0"/><stop offset="1" style="stop-color:#dfe1e5"/></linearGradient><path d="M72.7,149c11,0,17.9-1.8,22.2-4.3c10-5.8,11.3-14.1,21.8-21.1c7.4-4.9,15.1-6.3,20.4-6.8V149L72.7,149z" class="st30"/></g></g><g><path d="M104.6,147.3c0-0.2-0.1-0.4-0.1-0.6c0,0-0.1-0.3-0.3-0.5c-0.2-0.1-0.4-0.1-0.5-0.1l0.1,0.9l-0.4,2.3l1.3,1" class="st4"/></g><path d="M82.7,165.5c3.3-2.2,6.6-4.4,9.9-6.5c3.5-2.9,7-5.8,10.4-8.6c0.5,0.5,0.9,1,1.4,1.5c-2.5,3-5.5,6.1-9,9.4 c-3.8,3.5-7.5,6.5-10.9,9C84,168.6,83.4,167.1,82.7,165.5z" class="st25"/><path d="M58.8,223.4c-0.4,0.1-1.1,0.4-1.7,0.8c-0.6,0.4-1.1,0.9-1.4,1.3c0.1,0.3,0.2,0.6,0.3,0.8 c0.7,1.6,1.7,2.7,2.6,3.5c1.1,0,2.3,0,3.4,0c0-0.1,0-0.2,0-0.3c-0.1-0.9-1.7-1.2-1.8-1.2c-0.2-0.3-0.4-1-0.4-1.8 c0-0.8,0.3-1.5,0.4-1.8C59.7,224.3,59.2,223.9,58.8,223.4z" class="st31"/><circle cx="72" cy="169.4" r="6.7" class="st22"/><path d="M74,179.1c2.3-1.9,7.5-1,9.1,1.7c1.6,2.8-0.7,7.5-3.6,12.9c-0.8,1.5-2,3.7-7.4,12.3c-3,4.8-3.6,5.7-5.5,8.7 c-2.7,4.4-4.8,8-6.1,10.4c-1-0.5-1.9-0.9-2.9-1.4c1.4-3.3,2.4-6,3.1-7.9c1.4-3.9,2-6,3.6-9.4c1-2.2,2-3.9,2.6-5 c0.6-1.8,1.2-3.6,1.8-5.4c1.1-3.6,2.2-7.1,3.2-10.5c-0.1-0.8-0.1-2.1,0.4-3.5C72.4,181.5,72.9,180,74,179.1z" class="st24"/><path d="M79.5,225.8c-0.1,0.5-0.3,1-0.4,1.5c-0.1,0.7-0.2,1.4-0.3,2c0,0.3,0.2,0.6,0.5,0.6c2.3,0,4.7,0,7,0 c0-0.3,0-0.7-0.2-0.9c-0.3-0.3-0.7-0.3-1.2-0.4c0,0-1.4-0.2-2.6-1.4c-0.3-0.3-0.7-0.7-1-1.5C80.8,225.8,80.2,225.8,79.5,225.8z" class="st31"/><path d="M78.2,176.3c0.2-0.1,2.6-0.7,4.6,0.7c1.7,1.2,2.5,3.5,2.4,12.1c-0.1,4.3-0.3,8.9-1.1,15.9 c-0.6,5.2-0.8,6.5-1.2,11.1c-0.4,4.3-0.6,7.9-0.7,10.2c-1.2,0.1-2.3,0.1-3.5,0.2c-0.8-4.3-1.3-8-1.6-10.8c-0.3-2.9-0.5-4.6-0.2-6.8 c0.3-2.5,1.1-5.1,1.1-5.4c0.2-0.6,0.3-1.1,0.5-1.5c-0.2-1.2-0.6-3-1.1-5.2c-0.6-2.7-1.2-5.2-2-8.2c-1.5-5.1-2.1-5.6-1.7-7.3 C74,179.3,75.6,177,78.2,176.3z" class="st31"/><path d="M85.6,157.9c0.2,0.7,0.7,2.1,0.1,3.8c-0.2,0.5-0.7,1.8-2,2.5c-0.2,0.1-0.6,0.3-1.3,0.4 c-0.2,0-0.9,0.1-1.2-0.1c-1.4-0.7,0.2-6.6,2.2-8.1c0.5-0.4,0.8-0.3,0.9-0.3C85,156.2,85.3,157.3,85.6,157.9z" class="st22"/><path d="M72,182.6c0.7,0.6,3.7,2.7,7.9,2.5c3.6-0.2,6-2,6.8-2.7c-0.3-0.5-0.7-1.2-1.1-2.2c-0.2-0.7-1.1-3.4-0.1-6.4 c0.5-1.4,0.9-1.6,0.9-2.7c0-0.5-0.1-0.7-0.7-3.1c-0.5-1.8-0.5-1.9-0.7-2.1c-0.2-0.2-0.9-1.2-3.7-1.3c-3.1-0.2-5.9,0.9-7.6,1.8 c0.2,2.1,0.5,3.8,0.7,5c0.5,2.7,1,3.8,0.5,5.4c-0.2,0.8-0.5,0.8-1.3,2.4C72.8,180.6,72.3,181.8,72,182.6z" class="st25"/><path id="XMLID_1_" d="M85.4,160.1c0,0.1-0.1,0.1-0.3,0.2c-0.1,0.1-0.3,0.2-0.3,0.2c0,0.2,0,0.5,0,0.7 c0,0.5-0.1,1-0.2,1.4c-0.3,0.1-0.8,0.2-1.4,0.3c-0.6,0.1-1.5,0.2-2.6-0.1c-0.4-0.1-1.1-0.3-1.7-0.7c-1.2-0.8-2.2-2.8-1.4-4.7 c0.8-1.9,3.4-2.8,5-2.1c0.2,0.1,1.3,0.5,1.7,1.6c0.2,0.4,0.1,0.5,0.4,1.2c0.1,0.2,0.2,0.4,0.3,0.7 C85.2,159.6,85.5,159.9,85.4,160.1z" class="st4"/><path d="M78.7,160.9c0.2,0.3,0.5,1,0.6,1.9c0.1,1-0.2,1.7-0.4,2c0.7,0.4,1.3,0.9,2,1.3c1,0.7,1.9,1.3,2.7,2 c-0.4-1-0.8-2-1.2-3c0-0.3,0-0.7,0-1c0-0.5,0.1-0.9,0.2-1.3C81.3,162.3,80,161.6,78.7,160.9z" class="st4"/><path d="M71.4,144.2l-0.7-2.8c0-0.7,0.1-1.2,0.2-1.6c0.1-0.4,0.2-0.7,0.4-0.9c0.1-0.1,0.2-0.1,0.3-0.1 c0-0.2,0-0.3,0.1-0.4c0.1-0.1,0.3-0.2,0.4-0.1c0.1,0.1,0.2,0.2,0.2,0.4c0.1,0,0.1,0.2,0.1,0.3c0,0.5,0.4,0.9,0.3,2 c0.3-0.5,1.1-1.1,1.4-1c0.1,0,0.1,0.1,0.2,0.2c-0.2,0.4-0.5,0.9-0.7,1.3c0,0.2,0,0.6-0.1,0.9c-0.2,0.7-0.6,1.1-0.8,1.3L71.4,144.2z" class="st4"/><path d="M82.9,159c-0.4,0.5-0.6,0.2-1,0.7c-0.8,0.9,0,2-0.7,2.9c-0.4,0.4-0.7,0.1-1,0.5c-0.4,0.6,0.2,1.2,0,2.2 c-0.2,0.7-0.8,1.4-1.5,1.6c-0.8,0.2-1.2-0.4-1.9-0.1c-0.9,0.3-0.5,1.8-1.4,2.7c-1.2,1.2-3.9,1.3-5.7-0.2c-1.8-1.4-1.9-3.8-1.5-5.3 c0.4-1.5,1.4-2.7,2.6-3.4c1.2-0.7,1.9-0.4,3.1-1.4c0.5-0.4,0.6-0.4,1.5-1.9c0.4-0.7,1.2-1.9,2.5-2.6c1.4-0.8,2.9-0.6,3.5-0.5 c0.8,0.1,2.2,0.3,2.7,1.3c0,0.1,0.4,0.8,0.1,1.4c-0.1,0.2-0.2,0.2-0.4,0.4C83.2,157.8,83.4,158.3,82.9,159z" class="st22"/><path d="M78.7,168.2c-1.1-3.8-2.1-7.6-3.2-11.4c-0.8-4.5-1.5-8.9-2.3-13.4c-0.7,0.1-1.3,0.1-2,0.2 c0,3.9,0.1,8.2,0.7,12.9c0.6,5.2,1.4,9.9,2.4,13.9C75.7,169.7,77.2,168.9,78.7,168.2z" class="st25"/><g><linearGradient id="SVGID_11_" x1="3.972" x2="113.608" y1="304.469" y2="304.469" gradientUnits="userSpaceOnUse"><stop offset="0" style="stop-color:#091e42;stop-opacity:0"/><stop offset="1" style="stop-color:#091e42"/></linearGradient><ellipse cx="58.8" cy="304.5" class="st32" rx="54.8" ry="4.6"/><g><g><g><g><path d="M88.8,303.6c-0.5,0-0.9-0.3-1.1-0.8l-25.9-68.2c-0.2-0.6,0.1-1.3,0.7-1.5c0.6-0.2,1.3,0.1,1.5,0.7 L89.9,302c0.2,0.6-0.1,1.3-0.7,1.5C89.1,303.6,88.9,303.6,88.8,303.6z" class="st33"/></g></g><g><g><path d="M111.3,303.6c-0.5,0-0.9-0.3-1.1-0.8l-25.9-68.2c-0.2-0.6,0.1-1.3,0.7-1.5c0.6-0.2,1.3,0.1,1.5,0.7 l25.9,68.2c0.2,0.6-0.1,1.3-0.7,1.5C111.5,303.6,111.4,303.6,111.3,303.6z" class="st33"/></g></g></g><g><g><path d="M88.7,244.2H66.2c-0.7,0-1.2-0.5-1.2-1.2s0.5-1.2,1.2-1.2h22.5c0.7,0,1.2,0.5,1.2,1.2 S89.4,244.2,88.7,244.2z" class="st33"/></g><g><path d="M92.4,254.1H70c-0.7,0-1.2-0.5-1.2-1.2c0-0.7,0.5-1.2,1.2-1.2h22.5c0.7,0,1.2,0.5,1.2,1.2 C93.6,253.5,93.1,254.1,92.4,254.1z" class="st33"/></g><g><path d="M96.2,263.9H73.7c-0.7,0-1.2-0.5-1.2-1.2s0.5-1.2,1.2-1.2h22.5c0.7,0,1.2,0.5,1.2,1.2 S96.8,263.9,96.2,263.9z" class="st33"/></g><g><path d="M99.9,273.7H77.4c-0.7,0-1.2-0.5-1.2-1.2s0.5-1.2,1.2-1.2h22.5c0.7,0,1.2,0.5,1.2,1.2 S100.6,273.7,99.9,273.7z" class="st33"/></g><g><path d="M103.6,283.6H81.2c-0.7,0-1.2-0.5-1.2-1.2s0.5-1.2,1.2-1.2h22.5c0.7,0,1.2,0.5,1.2,1.2 S104.3,283.6,103.6,283.6z" class="st33"/></g><g><path d="M107.4,293.4H84.9c-0.7,0-1.2-0.5-1.2-1.2s0.5-1.2,1.2-1.2h22.5c0.7,0,1.2,0.5,1.2,1.2 S108,293.4,107.4,293.4z" class="st33"/></g></g><g><g><g><path d="M51.8,303.6c-0.1,0-0.3,0-0.4-0.1c-0.6-0.2-0.9-0.9-0.7-1.5l25.9-68.2c0.2-0.6,0.9-0.9,1.5-0.7 c0.6,0.2,0.9,0.9,0.7,1.5l-25.9,68.2C52.7,303.4,52.3,303.6,51.8,303.6z" class="st21"/></g></g><g><g><path d="M29.3,303.6c-0.1,0-0.3,0-0.4-0.1c-0.6-0.2-0.9-0.9-0.7-1.5l25.9-68.2c0.2-0.6,0.9-0.9,1.5-0.7 c0.6,0.2,0.9,0.9,0.7,1.5l-25.9,68.2C30.3,303.4,29.8,303.6,29.3,303.6z" class="st21"/></g></g></g><g><path d="M87.2,235.2H53.8c-1.5,0-2.6-1.2-2.6-2.6l0,0c0-1.5,1.2-2.6,2.6-2.6h33.5c1.5,0,2.6,1.2,2.6,2.6l0,0 C89.9,234,88.7,235.2,87.2,235.2z" class="st34"/></g><g><path d="M87.2,235.2h-6.5c-1.5,0-2.6-1.2-2.6-2.6l0,0c0-1.5,1.2-2.6,2.6-2.6h6.5c1.5,0,2.6,1.2,2.6,2.6l0,0 C89.9,234,88.7,235.2,87.2,235.2z" class="st21"/></g><g><g><path d="M74.3,244.2H51.9c-0.7,0-1.2-0.5-1.2-1.2s0.5-1.2,1.2-1.2h22.5c0.7,0,1.2,0.5,1.2,1.2 S75,244.2,74.3,244.2z" class="st21"/></g><g><path d="M70.6,254.1H48.1c-0.7,0-1.2-0.5-1.2-1.2c0-0.7,0.5-1.2,1.2-1.2h22.5c0.7,0,1.2,0.5,1.2,1.2 C71.8,253.5,71.3,254.1,70.6,254.1z" class="st21"/></g><g><path d="M66.9,263.9H44.4c-0.7,0-1.2-0.5-1.2-1.2s0.5-1.2,1.2-1.2h22.5c0.7,0,1.2,0.5,1.2,1.2 S67.5,263.9,66.9,263.9z" class="st21"/></g><g><path d="M63.1,273.7H40.7c-0.7,0-1.2-0.5-1.2-1.2s0.5-1.2,1.2-1.2h22.5c0.7,0,1.2,0.5,1.2,1.2 S63.8,273.7,63.1,273.7z" class="st21"/></g><g><path d="M59.4,283.6H36.9c-0.7,0-1.2-0.5-1.2-1.2s0.5-1.2,1.2-1.2h22.5c0.7,0,1.2,0.5,1.2,1.2 S60.1,283.6,59.4,283.6z" class="st21"/></g><g><path d="M55.7,293.4H33.2c-0.7,0-1.2-0.5-1.2-1.2s0.5-1.2,1.2-1.2h22.5c0.7,0,1.2,0.5,1.2,1.2 S56.3,293.4,55.7,293.4z" class="st21"/></g></g></g></g><linearGradient id="SVGID_12_" x1="251.206" x2="360.842" y1="304.469" y2="304.469" gradientUnits="userSpaceOnUse"><stop offset="0" style="stop-color:#091e42;stop-opacity:0"/><stop offset="1" style="stop-color:#091e42"/></linearGradient><ellipse cx="306" cy="304.5" class="st35" rx="54.8" ry="4.6"/></g></svg>