<svg xmlns="http://www.w3.org/2000/svg" width="64" height="64" fill="none" viewBox="0 0 64 64"><g clip-path="url(#clip0_786_2)"><rect width="64" height="64" fill="#fff" fill-opacity=".4"/><g opacity=".45"><rect width="1" height="60" x="8" y="2" fill="#000" fill-opacity=".2"/><rect width="1" height="60" x="16" y="2" fill="#000" fill-opacity=".2"/><rect width="1" height="60" x="24" y="2" fill="#000" fill-opacity=".2"/><rect width="1" height="60" x="32" y="2" fill="#000" fill-opacity=".2"/><rect width="1" height="60" x="40" y="2" fill="#000" fill-opacity=".2"/><rect width="1" height="60" x="48" y="2" fill="#000" fill-opacity=".2"/><rect width="1" height="60" x="56" y="2" fill="#000" fill-opacity=".2"/><rect width="60" height="1" x="2" y="8" fill="#000" fill-opacity=".2"/><rect width="60" height="1" x="2" y="16" fill="#000" fill-opacity=".2"/><rect width="60" height="1" x="2" y="24" fill="#000" fill-opacity=".2"/><rect width="60" height="1" x="2" y="32" fill="#000" fill-opacity=".2"/><rect width="60" height="1" x="2" y="40" fill="#000" fill-opacity=".2"/><rect width="60" height="1" x="2" y="48" fill="#000" fill-opacity=".2"/><rect width="60" height="1" x="2" y="56" fill="#000" fill-opacity=".2"/></g><path stroke="#F60" stroke-dasharray="2 8" stroke-linecap="round" stroke-width="2" d="M6 58C10.0463 52.0342 13.1476 37.7311 16.5 32.5C19.1945 28.2954 21.9931 44.5696 24.5 40.5C28.6827 33.71 28.1922 30.513 32.5 24.5C36.3963 19.0614 42.4359 33.797 48.5 32.5C51.7703 31.8005 55.0477 24.5 58 24.5"/><rect width="59" height="59" x="2.5" y="2.5" stroke="#000" rx="4.5"/></g><defs><clipPath id="clip0_786_2"><rect width="64" height="64" fill="#fff"/></clipPath></defs></svg>