<svg xmlns="http://www.w3.org/2000/svg" width="64" height="64" fill="none" viewBox="0 0 64 64"><g clip-path="url(#clip0_51_778)"><rect width="64" height="64" fill="#fff" fill-opacity=".4" rx="6"/><g opacity=".45"><rect width="1" height="60" x="8" y="2" fill="#000" fill-opacity=".2"/><rect width="1" height="60" x="16" y="2" fill="#000" fill-opacity=".2"/><rect width="1" height="60" x="24" y="2" fill="#000" fill-opacity=".2"/><rect width="1" height="60" x="32" y="2" fill="#000" fill-opacity=".2"/><rect width="1" height="60" x="40" y="2" fill="#000" fill-opacity=".2"/><rect width="1" height="60" x="48" y="2" fill="#000" fill-opacity=".2"/><rect width="1" height="60" x="56" y="2" fill="#000" fill-opacity=".2"/><rect width="60" height="1" x="2" y="8" fill="#000" fill-opacity=".2"/><rect width="60" height="1" x="2" y="16" fill="#000" fill-opacity=".2"/><rect width="60" height="1" x="2" y="24" fill="#000" fill-opacity=".2"/><rect width="60" height="1" x="2" y="32" fill="#000" fill-opacity=".2"/><rect width="60" height="1" x="2" y="40" fill="#000" fill-opacity=".2"/><rect width="60" height="1" x="2" y="48" fill="#000" fill-opacity=".2"/><rect width="60" height="1" x="2" y="56" fill="#000" fill-opacity=".2"/></g><rect width="59" height="59" x="2.5" y="2.5" stroke="#000" rx="4.5"/><path stroke="#F60" stroke-linecap="round" stroke-width="2" d="M6 57.9059C29.14 60.5012 34.6 8.59529 58 6"/></g><defs><clipPath id="clip0_51_778"><rect width="64" height="64" fill="#fff" rx="6"/></clipPath></defs></svg>