<svg xmlns="http://www.w3.org/2000/svg" xmlns:xlink="http://www.w3.org/1999/xlink" width="200" height="200" class="icon" p-id="12030" t="1706762464343" version="1.1" viewBox="0 0 1024 1024"><path fill="#ACAFB7" d="M512 64a448 448 0 1 1 0 896A448 448 0 0 1 512 64z" p-id="12031"/><path fill="#FFF" d="M612.096 240.768a44.8 44.8 0 0 1 44.352 38.72l0.448 6.08v83.2h51.072a44.8 44.8 0 0 1 44.416 38.72l0.384 6.08v64a236.864 236.864 0 0 1-192 232.576v87.424a44.8 44.8 0 0 1-89.216 6.08l-0.384-6.08-0.064-87.424a236.864 236.864 0 0 1-191.936-232.576v-64a44.8 44.8 0 0 1 44.8-44.8h51.264v-83.2a44.8 44.8 0 0 1 89.216-6.08l0.448 6.08v83.2h102.4v-83.2a44.8 44.8 0 0 1 44.8-44.8z m51.008 217.6H368.768v19.2a147.2 147.2 0 0 0 137.152 146.88l10.048 0.32a147.2 147.2 0 0 0 147.2-147.2v-19.2z" p-id="12032"/></svg>