<svg xmlns="http://www.w3.org/2000/svg" width="512" height="512" viewBox="0 0 512 512"><defs><linearGradient id="bgGrad" x1="0%" x2="0%" y1="0%" y2="100%"><stop offset="0%" style="stop-color:#22c55e;stop-opacity:1"/><stop offset="100%" style="stop-color:#16a34a;stop-opacity:1"/></linearGradient></defs><rect width="512" height="512" fill="url(#bgGrad)" rx="112" ry="112"/><rect width="352" height="40" x="80" y="220" fill="#fff" opacity=".98" rx="16"/><rect width="28" height="140" x="140" y="260" fill="#fff" opacity=".95" rx="8"/><rect width="12" height="100" x="148" y="280" fill="#16a34a" opacity=".4" rx="2"/><rect width="28" height="140" x="344" y="260" fill="#fff" opacity=".95" rx="8"/><rect width="12" height="100" x="352" y="280" fill="#16a34a" opacity=".4" rx="2"/><path fill="#fff" d="M 256 80 L 220 160 L 292 160 Z" opacity=".95"/><rect width="28" height="40" x="242" y="160" fill="#fff" opacity=".95" rx="6"/><path fill="#fff" d="M 256 432 L 220 352 L 292 352 Z" opacity=".5"/><rect width="28" height="40" x="242" y="312" fill="#fff" opacity=".5" rx="6"/><circle cx="256" cy="240" r="16" fill="#fff" opacity=".9"/><circle cx="256" cy="240" r="8" fill="#16a34a" opacity=".7"/></svg>