<svg xmlns="http://www.w3.org/2000/svg" xmlns:xlink="http://www.w3.org/1999/xlink" width="18.227" height="17.898" version="1.1"><g><rect width="18.227" height="17.898" x="0" y="0" opacity="0"/><path fill="#000" fill-opacity=".85" d="M14.4688 16.2969L4.30469 16.2969C4.03125 16.2969 3.8125 16.5078 3.8125 16.7891C3.8125 17.0703 4.03125 17.2891 4.30469 17.2891L14.4688 17.2891C14.7422 17.2891 14.9609 17.0703 14.9609 16.7891C14.9609 16.5078 14.7422 16.2969 14.4688 16.2969Z"/><path fill="#000" fill-opacity=".85" d="M14.4688 13.6484L4.30469 13.6484C4.03125 13.6484 3.8125 13.8594 3.8125 14.1406C3.8125 14.4219 4.03125 14.6328 4.30469 14.6328L14.4688 14.6328C14.7422 14.6328 14.9609 14.4219 14.9609 14.1406C14.9609 13.8594 14.7422 13.6484 14.4688 13.6484Z"/><path fill="#000" fill-opacity=".85" d="M4.0625 11.8359L13.7578 11.8359C16.3203 11.8359 18.2266 9.89062 18.2266 7.48438C18.2266 4.99219 16.1953 3.17188 13.5469 3.17188C12.5703 1.24219 10.7578 0 8.5 0C5.5625 0 3.14062 2.30469 2.88281 5.20312C1.46875 5.61719 0.390625 6.84375 0.390625 8.49219C0.390625 10.3438 1.73438 11.8359 4.0625 11.8359Z"/></g></svg>