<svg xmlns="http://www.w3.org/2000/svg" xmlns:xlink="http://www.w3.org/1999/xlink" id="Layer_1" x="0" y="0" version="1.1" viewBox="0 0 24 24" xml:space="preserve" style="enable-background:new 0 0 24 24"><title>SeekIconTemplate24px_03</title><g><rect width="2" height="2" x="9" y="6"/><rect width="2" height="2" x="13" y="6"/><rect width="2" height="2" x="9" y="10"/><rect width="2" height="2" x="13" y="10"/><rect width="2" height="2" x="9" y="14"/><rect width="2" height="2" x="13" y="14"/><path d="M17,2.2c0-0.1,0-0.1,0-0.2c0-0.6-0.4-1-1-1H8C7.4,1,7,1.4,7,2c0,0.1,0,0.1,0,0.2C5.9,2.6,5,3.7,5,5v16c0,0.6,0.4,1,1,1h12 c0.6,0,1-0.4,1-1V5C19,3.7,18.1,2.6,17,2.2z M17,20h-3v-2h-4v2H7V5c0-0.6,0.4-1,1-1h8c0.6,0,1,0.4,1,1V20z"/></g></svg>