<svg xmlns="http://www.w3.org/2000/svg" xmlns:xlink="http://www.w3.org/1999/xlink" width="16" height="16" fill="none" viewBox="0 0 16 16"><linearGradient id="a" x1="15.321" x2="3.232" y1="-3.135" y2="17.422" gradientUnits="userSpaceOnUse"><stop offset="0" stop-color="#02e356"/><stop offset="1" stop-color="#01ffff"/></linearGradient><path fill="#fff" d="m1.3334 4.79506 6.66665-3.39838 6.76545 3.39838v6.51744l-6.76545 3.3052-6.66665-3.3052z"/><path fill="#000" d="m7.94879 13.0634-5.04227-2.5253 1.72448-.85687 1.94154.97197 1.62908-.80967-1.94154-.97189 1.72449-.8589 5.04233 2.52536-1.7246.8568-1.83415-.9185-1.63147.8117 1.83659.9185z"/><path fill="#000" d="m7.94879 8.04004-5.04227-2.52536 1.72448-.85686 1.94154.97193 1.62908-.8096-1.94154-.97192 1.72449-.85891 5.04233 2.52536-1.7246.85685-1.83415-.91849-1.63147.81165 1.83659.9185z"/><path fill="url(#a)" fill-rule="evenodd" d="m8.02515 0 7.97485 4.06907v7.98593l-7.97487 3.945-8.02513-3.9439v-7.9882zm-6.69182 4.81916v6.47474l6.68976 3.2876 6.64361-3.2864v-6.47711l-6.64363-3.38982z" clip-rule="evenodd"/></svg>