<svg xmlns="http://www.w3.org/2000/svg" width="384" height="384" fill="none" viewBox="0 0 384 384"><g><path fill="#fff" d="M221.079 103.296L220.694 0H162.921L163.306 103.296L192.193 142.848L221.079 103.296Z"/><path fill="#fff" d="M163.306 280.32V384H221.079V280.32L192.193 240.768L163.306 280.32Z"/><path fill="#00F2E6" d="M221.079 280.32L281.934 364.032L328.538 330.24L267.683 246.528L221.079 231.552V280.32Z"/><path fill="#00F2E6" d="M163.306 103.296L102.066 19.584L55.4625 53.376L116.317 137.088L163.306 152.064V103.296Z"/><path fill="#00B9F1" d="M116.317 137.088L17.7172 105.216L0 159.744L98.5998 192L145.204 176.64L116.317 137.088Z"/><path fill="#00B9F1" d="M238.796 206.976L267.683 246.528L366.283 278.4L384 223.872L285.4 192L238.796 206.976Z"/><path fill="#D63AFF" d="M285.4 192L384 159.744L366.283 105.216L267.683 137.088L238.796 176.64L285.4 192Z"/><path fill="#D63AFF" d="M98.5998 192L0 223.872L17.7172 278.4L116.317 246.528L145.204 206.976L98.5998 192Z"/><path fill="#FB015B" d="M116.317 246.528L55.4625 330.24L102.066 364.032L163.306 280.32V231.552L116.317 246.528Z"/><path fill="#FB015B" d="M267.683 137.088L328.538 53.376L281.934 19.584L221.079 103.296V152.064L267.683 137.088Z"/></g></svg>