<svg xmlns="http://www.w3.org/2000/svg" width="24" height="24" fill="none" viewBox="0 0 24 24"><g clip-path="url(#clip0_1001_177981)"><path stroke="#fff" stroke-linecap="square" stroke-width="1.5" d="M2 4H4L4.5 7M4.5 7L6 16H19.5L21 7H4.5Z"/><path fill="#fff" d="M9 20C9 20.5523 8.55228 21 8 21C7.44772 21 7 20.5523 7 20C7 19.4477 7.44772 19 8 19C8.55228 19 9 19.4477 9 20Z"/><path fill="#fff" d="M18 20C18 20.5523 17.5523 21 17 21C16.4477 21 16 20.5523 16 20C16 19.4477 16.4477 19 17 19C17.5523 19 18 19.4477 18 20Z"/><path stroke="#fff" stroke-linecap="round" stroke-linejoin="round" stroke-width="1.5" d="M9 20C9 20.5523 8.55228 21 8 21C7.44772 21 7 20.5523 7 20C7 19.4477 7.44772 19 8 19C8.55228 19 9 19.4477 9 20Z"/><path stroke="#fff" stroke-linecap="round" stroke-linejoin="round" stroke-width="1.5" d="M18 20C18 20.5523 17.5523 21 17 21C16.4477 21 16 20.5523 16 20C16 19.4477 16.4477 19 17 19C17.5523 19 18 19.4477 18 20Z"/></g><defs><clipPath id="clip0_1001_177981"><rect width="24" height="24" fill="#fff"/></clipPath></defs></svg>