<svg xmlns="http://www.w3.org/2000/svg" xmlns:xlink="http://www.w3.org/1999/xlink" id="Layer_1" width="16" height="16" x="0" y="0" aria-hidden="true" role="img" viewBox="0 0 20 20" xml:space="preserve"><style type="text/css">.st0{fill-rule:evenodd;clip-rule:evenodd}</style><defs><linearGradient id="dark_theme_fill" x1="10.19" x2="11.432" y1=".064" y2="30.287" gradientUnits="userSpaceOnUse"><stop stop-color="#00E06C"/><stop offset="0" stop-color="#00D779"/><stop offset=".909" stop-color="#007BFF"/></linearGradient></defs><path d="M1.4,18.6V0H0v20h20v-1.4H1.4z M3.2,16.9c2.8,0,4.7-1,6-2.5s2-3.4,2.7-5.1l0,0c0,0,1.3-3.6,2.4-4.9 c1-1.2,2.5-2,5-2H20V1h-0.7c-2.8,0-4.7,1-6,2.5s-2.7,5.2-2.7,5.2c-0.7,1.8-1.3,3.5-2.4,4.8c-1,1.2-2.5,2-5,2H2.5v1.4 C2.5,16.9,3.2,16.9,3.2,16.9z" class="st0"/></svg>