<svg xmlns="http://www.w3.org/2000/svg" id="ae0f0a87-55d1-4209-a659-116f5661950c" width="18" height="18" viewBox="0 0 18 18"><defs><linearGradient id="b9aa270a-a747-473c-8e0d-b8fa9ead4a39" x1="9" x2="9" y1="15.92" y2="3.58" gradientUnits="userSpaceOnUse"><stop offset="0" stop-color="#e27908"/><stop offset=".3" stop-color="#e57e0a"/><stop offset=".64" stop-color="#ed8b11"/><stop offset="1" stop-color="#faa21d"/><stop offset="1" stop-color="#faa21d"/></linearGradient></defs><path fill="#ef7100" d="M17.1,3.6H9.69a.34.34,0,0,1-.22-.07L7.35,2.12a.43.43,0,0,0-.22-.06H.9a.4.4,0,0,0-.4.39v13.1a.4.4,0,0,0,.4.39H17.1a.4.4,0,0,0,.4-.39V4A.4.4,0,0,0,17.1,3.6Z"/><rect width="3.86" height=".77" x="2.05" y="2.82" fill="#fff" rx=".16"/><rect width=".77" height=".77" x="2.05" y="2.82" fill="#d15900" rx=".11"/><path fill="url(#b9aa270a-a747-473c-8e0d-b8fa9ead4a39)" d="M17.1,3.58H9a.36.36,0,0,0-.28.12L7.37,5a.43.43,0,0,1-.28.11H.9a.4.4,0,0,0-.4.4v10a.4.4,0,0,0,.4.39H17.1a.4.4,0,0,0,.4-.39V4A.4.4,0,0,0,17.1,3.58Z"/><polygon fill="#ffca00" points="12.84 8.03 12.84 12.21 9.25 14.31 9.25 10.12 12.84 8.03"/><polygon fill="#ffe452" points="12.84 8.03 9.25 10.13 5.65 8.03 9.25 5.92 12.84 8.03"/><polygon fill="#ffd400" points="9.25 10.13 9.25 14.31 5.65 12.21 5.65 8.03 9.25 10.13"/></svg>