<svg xmlns="http://www.w3.org/2000/svg" width="18" height="18" viewBox="0 0 18 18"><title>MsPortalFx.base.images-18</title><g id="fb2be18e-454f-4104-869a-31c3b8ba961c"><g><g><polygon fill="#76bc2d" points="13.067 2.794 13.067 7.585 8.926 9.993 8.926 5.194 13.067 2.794"/><polygon fill="#b4ec36" points="13.067 2.794 8.926 5.201 4.785 2.793 8.926 .386 13.067 2.794"/><polygon fill="#86d633" points="8.926 5.201 8.926 9.993 4.785 7.585 4.785 2.793 8.926 5.201"/></g><g><polygon fill="#76bc2d" points="8.782 10.416 8.782 15.207 4.641 17.614 4.641 12.816 8.782 10.416"/><polygon fill="#b4ec36" points="8.782 10.416 4.641 12.822 .5 10.415 4.641 8.007 8.782 10.416"/><polygon fill="#86d633" points="4.641 12.822 4.641 17.614 .5 15.207 .5 10.415 4.641 12.822"/></g><g><polygon fill="#76bc2d" points="17.5 10.416 17.5 15.207 13.359 17.614 13.359 12.816 17.5 10.416"/><polygon fill="#b4ec36" points="17.5 10.416 13.36 12.822 9.218 10.415 13.36 8.007 17.5 10.416"/><polygon fill="#86d633" points="13.359 12.822 13.359 17.614 9.218 15.207 9.218 10.415 13.359 12.822"/></g></g></g></svg>