<svg xmlns="http://www.w3.org/2000/svg" width="18" height="18" viewBox="0 0 18 18"><defs><linearGradient id="f9735c41-4373-4adb-b2b2-792fb469daad" x1="9" x2="9" y1="15.432" y2="5.977" gradientUnits="userSpaceOnUse"><stop offset="0" stop-color="#32bedd"/><stop offset=".175" stop-color="#32caea"/><stop offset=".41" stop-color="#32d2f2"/><stop offset=".775" stop-color="#32d4f5"/></linearGradient></defs><title>MsPortalFx.base.images-67</title><g id="e570f1c2-02c9-41ea-b129-22ed8e502359"><g><path fill="url(#f9735c41-4373-4adb-b2b2-792fb469daad)" d="M1,5.977H17a0,0,0,0,1,0,0V14.9a.535.535,0,0,1-.535.535H1.535A.535.535,0,0,1,1,14.9V5.977A0,0,0,0,1,1,5.977Z"/><path fill="#0078d4" d="M1.539,2.568H16.463A.535.535,0,0,1,17,3.1V5.977a0,0,0,0,1,0,0H1a0,0,0,0,1,0,0V3.1A.535.535,0,0,1,1.539,2.568Z"/><rect width="11.499" height="1.35" x="3.252" y="3.58" fill="#f2f2f2" rx=".263"/><g><path fill="#f2f2f2" d="M6.611,13.469,8.666,7.923a.27.27,0,0,0-.253-.363H7.136a.269.269,0,0,0-.252.176L4.829,13.282a.269.269,0,0,0,.252.362H6.358A.27.27,0,0,0,6.611,13.469Z"/><path fill="#f2f2f2" d="M11.116,13.469l2.055-5.546a.269.269,0,0,0-.252-.363H11.642a.269.269,0,0,0-.253.176L9.334,13.282a.269.269,0,0,0,.253.362h1.277A.269.269,0,0,0,11.116,13.469Z"/></g></g></g></svg>