<svg xmlns="http://www.w3.org/2000/svg" width="18" height="18" viewBox="0 0 18 18"><defs><linearGradient id="b04c7825-41db-4c22-aba2-f5c44b816ed3" x1="3.565" x2="3.565" y1="17" y2="3.753" gradientUnits="userSpaceOnUse"><stop offset="0" stop-color="#fea11b"/><stop offset=".127" stop-color="#feac19"/><stop offset=".562" stop-color="#ffcb12"/><stop offset=".804" stop-color="#ffd70f"/></linearGradient><linearGradient id="e3016781-9cad-4dda-b769-212e01557f4d" x1="9" x2="9" y1="17" y2="3.753" gradientUnits="userSpaceOnUse"><stop offset="0" stop-color="#5e9624"/><stop offset=".546" stop-color="#6dad2a"/><stop offset=".999" stop-color="#76bc2d"/></linearGradient><linearGradient id="a5967715-2146-4485-8c36-86a8b43a627b" x1="14.435" x2="14.435" y1="17" y2="3.753" gradientUnits="userSpaceOnUse"><stop offset="0" stop-color="#1b93eb"/><stop offset="1" stop-color="#6bb9f2"/></linearGradient></defs><title>MsPortalFx.base.images-65</title><g id="b24e240b-3208-4fba-a929-5634b14397d6"><g><rect width="4.396" height="13.247" x="1.367" y="3.753" fill="url(#b04c7825-41db-4c22-aba2-f5c44b816ed3)" rx=".517"/><rect width="4.396" height="13.247" x="6.802" y="3.753" fill="url(#e3016781-9cad-4dda-b769-212e01557f4d)" rx=".517"/><rect width="4.396" height="13.247" x="12.238" y="3.753" fill="url(#a5967715-2146-4485-8c36-86a8b43a627b)" rx=".517"/><path fill="#faa21d" d="M1.617,1H5.512a.251.251,0,0,1,.251.251V4.122a0,0,0,0,1,0,0h-4.4a0,0,0,0,1,0,0V1.251A.251.251,0,0,1,1.617,1Z"/><path fill="#86d633" d="M7.053,1h3.894a.251.251,0,0,1,.251.251V4.122a0,0,0,0,1,0,0H6.8a0,0,0,0,1,0,0V1.251A.251.251,0,0,1,7.053,1Z"/><path fill="#5ea0ef" d="M12.488,1h3.894a.251.251,0,0,1,.251.251V4.122a0,0,0,0,1,0,0h-4.4a0,0,0,0,1,0,0V1.251A.251.251,0,0,1,12.488,1Z"/></g></g></svg>