<svg xmlns="http://www.w3.org/2000/svg" width="18" height="18" viewBox="0 0 18 18"><defs><linearGradient id="b06c9384-33ad-4efe-952b-f07dd7280cd3" x1="9" x2="9" y1="22.81" y2="-2.491" gradientUnits="userSpaceOnUse"><stop offset="0" stop-color="#0078d4"/><stop offset=".165" stop-color="#1c84dc"/><stop offset=".378" stop-color="#3990e4"/><stop offset=".59" stop-color="#4d99ea"/><stop offset=".799" stop-color="#5a9eee"/><stop offset="1" stop-color="#5ea0ef"/></linearGradient><linearGradient id="b7b1324f-a493-4cab-878a-b431174afdea" x1="9" x2="9" y1="15.982" y2="1.522" gradientUnits="userSpaceOnUse"><stop offset="0" stop-color="#d2ebff"/><stop offset=".997" stop-color="#f0fffd"/></linearGradient></defs><title>MsPortalFx.base.images-63</title><g id="e3ed6d7b-9877-4f9f-8f9b-9bc4f4055bee"><g><rect width="10.777" height="18" x="3.612" fill="url(#b06c9384-33ad-4efe-952b-f07dd7280cd3)" rx=".419"/><rect width="2.483" height=".333" x="7.758" y=".604" fill="#f2f2f2" rx=".154"/><rect width="8.754" height="14.461" x="4.623" y="1.522" fill="url(#b7b1324f-a493-4cab-878a-b431174afdea)" opacity=".9" rx=".201"/><rect width="1.204" height="1.028" x="8.398" y="16.58" fill="#f2f2f2" rx=".286"/><path fill="#5ea0ef" d="M11.4,2.892V6.476a.192.192,0,0,1-.193.192h-1.5a.047.047,0,0,0-.047.047v.578a.094.094,0,0,1-.151.074l-.9-.689a.048.048,0,0,0-.029-.01H5.974a.192.192,0,0,1-.193-.192V2.892A.192.192,0,0,1,5.974,2.7H11.21A.192.192,0,0,1,11.4,2.892Z"/><rect width="1.683" height="4.782" x="5.768" y="9.88" fill="#5ea0ef" rx=".293"/><rect width="1.683" height="5.855" x="8.265" y="8.806" fill="#0078d4" rx=".293"/><rect width="1.683" height="6.734" x="10.761" y="7.927" fill="#005ba1" rx=".293"/></g></g></svg>