<svg xmlns="http://www.w3.org/2000/svg" width="18" height="18" viewBox="0 0 18 18"><defs><linearGradient id="bcca396e-f939-4355-b7b5-51363d97cee0" x1="9" x2="9" y1="17.5" y2=".5" gradientUnits="userSpaceOnUse"><stop offset="0" stop-color="#0078d4"/><stop offset=".817" stop-color="#5ea0ef"/></linearGradient></defs><title>MsPortalFx.base.images-61</title><g id="b5641c8f-5957-4500-9380-ed121d5f3f80"><g><g><path fill="#fff" d="M9.966.627H2.731A.571.571,0,0,0,2.16,1.2V16.8a.571.571,0,0,0,.571.572H15.269a.571.571,0,0,0,.571-.572V6.475a.571.571,0,0,0-.571-.572H11.108a.571.571,0,0,1-.571-.571V1.2A.572.572,0,0,0,9.966.627Z"/><path fill="url(#bcca396e-f939-4355-b7b5-51363d97cee0)" d="M9.7,1.357V5.276a1.438,1.438,0,0,0,1.436,1.438h3.947v9.929H2.915V1.357H9.7M9.978.5H2.638a.581.581,0,0,0-.58.581V16.919a.581.581,0,0,0,.58.581H15.362a.581.581,0,0,0,.58-.581V6.437a.58.58,0,0,0-.58-.58H11.138a.58.58,0,0,1-.58-.581V1.081A.581.581,0,0,0,9.978.5Z"/><path fill="#0078d4" d="M15.72,5.972,10.358.627V4.982a.984.984,0,0,0,.978.99Z"/></g><path fill="#32bedd" d="M4.639,5.231V8.775a.285.285,0,0,0,.426.247l3.1-1.772a.284.284,0,0,0,0-.494l-3.1-1.772A.285.285,0,0,0,4.639,5.231Z"/><rect width="7.37" height=".989" x="4.588" y="10.418" fill="#5ea0ef" rx=".444"/><rect width="7.37" height=".989" x="4.588" y="12.189" fill="#5ea0ef" rx=".444"/><rect width="4.645" height=".989" x="4.588" y="13.961" fill="#5ea0ef" rx=".444"/></g></g></svg>