<svg xmlns="http://www.w3.org/2000/svg" width="18" height="18" viewBox="0 0 18 18"><defs><linearGradient id="a1711304-680d-4c8b-88a3-f1ba4b9a6455" x1="9" x2="9" y1="16.431" y2="4.559" gradientUnits="userSpaceOnUse"><stop offset="0" stop-color="#0078d4"/><stop offset=".156" stop-color="#1380da"/><stop offset=".528" stop-color="#3c91e5"/><stop offset=".822" stop-color="#559cec"/><stop offset="1" stop-color="#5ea0ef"/></linearGradient></defs><title>MsPortalFx.base.images-78</title><g id="bb1c4aae-a407-4f6f-98e2-81891d0404e1"><g><path fill="#a3a3a3" d="M13.135,4.659h-.85V2.422a.1.1,0,0,0-.026,0H5.845a.093.093,0,0,0-.026,0V4.659h-.85V2.379a.846.846,0,0,1,.876-.81h6.414a.846.846,0,0,1,.876.81Z"/><rect width="17" height="11.872" x=".5" y="4.559" fill="url(#a1711304-680d-4c8b-88a3-f1ba4b9a6455)" rx=".567"/><rect width="17" height="1.311" x=".5" y="7.594" fill="#9cebff"/><path fill="#005ba1" d="M6.617,8.905H11.5a0,0,0,0,1,0,0v1.531a.281.281,0,0,1-.281.281H6.9a.281.281,0,0,1-.281-.281V8.905A0,0,0,0,1,6.617,8.905Z"/><polygon fill="#83b9f9" points=".5 10.894 .5 13.889 5.144 15.378 6.015 12.662 .5 10.894"/><path fill="#5ea0ef" d="M17.5,10.745a2.718,2.718,0,1,0,0,4.837Z"/></g></g></svg>