<svg xmlns="http://www.w3.org/2000/svg" width="18" height="18" viewBox="0 0 18 18"><defs><linearGradient id="f6607f9a-6e3a-4339-acc9-d6f3ae1a2c0d" x1="9" x2="9" y1="15.799" y2="5.316" gradientUnits="userSpaceOnUse"><stop offset="0" stop-color="#a67af4"/><stop offset=".775" stop-color="#b796f9"/></linearGradient></defs><title>MsPortalFx.base.images-3</title><g id="f3784f80-3379-4e66-8e32-fca3fab0f4d7"><g><path fill="url(#f6607f9a-6e3a-4339-acc9-d6f3ae1a2c0d)" d="M.544,5.316H17.456a0,0,0,0,1,0,0v9.918a.565.565,0,0,1-.565.565H1.109a.565.565,0,0,1-.565-.565V5.316A0,0,0,0,1,.544,5.316Z"/><path fill="#773adc" d="M1.112,2.2H16.888a.565.565,0,0,1,.565.565v2.55a0,0,0,0,1,0,0H.547a0,0,0,0,1,0,0V2.766A.565.565,0,0,1,1.112,2.2Z"/><g><rect width="3.683" height="7.933" x="2.625" y="6.435" fill="#fff" rx=".274"/><rect width="3.683" height="7.933" x="7.158" y="6.435" fill="#fff" opacity=".75" rx=".274"/><rect width="3.683" height="7.933" x="11.692" y="6.435" fill="#fff" opacity=".5" rx=".274"/></g></g></g></svg>