<svg xmlns="http://www.w3.org/2000/svg" width="24" height="24"><title>Accessible Station</title><g fill="none" fill-rule="nonzero"><path fill="#00F" d="M0 0h23.986v23.776H0z"/><g fill="#FFF"><path d="M11.202 5.22a1.495 1.495 0 01-1.514 1.473 1.498 1.498 0 01-1.496-1.495A1.495 1.495 0 019.7 3.718c.83.002 1.501.668 1.502 1.489"/><path d="M8.454 5.968l.64 7.367 5.449-.034 2.12 5.08 2.556-.808-.539-1.278-1.311.337-1.884-4.643h-5.08v-1.042h3.028V9.6h-3.398l-.067-2.927"/><path d="M8.291 9.707c-7.91 5.314 2.037 15.199 7.266 7.732l-.577-1.984c-2.325 6.416-11.813 1.253-6.593-4.004l-.096-1.744z"/></g></g></svg>