<svg xmlns="http://www.w3.org/2000/svg" width="80" height="80" preserveAspectRatio="xMidYMid meet" version="1.0" viewBox="0 0 60 60"><g fill="#2684FF" stroke="none"><path d="M102 540 c-38 -16 -44 -52 -40 -248 3 -165 5 -185 21 -197 27 -20 128 -28 277 -23 183 5 174 -6 178 238 l3 190 -25 25 c-25 25 -26 25 -208 24 -101 0 -193 -4 -206 -9z m358 -110 c0 -19 -7 -20 -160 -20 -153 0 -160 1 -160 20 0 19 7 20 160 20 153 0 160 -1 160 -20z m0 -80 c0 -19 -7 -20 -160 -20 -153 0 -160 1 -160 20 0 19 7 20 160 20 153 0 160 -1 160 -20z m0 -80 c0 -19 -7 -20 -160 -20 -153 0 -160 1 -160 20 0 19 7 20 160 20 153 0 160 -1 160 -20z m-120 -80 c0 -19 -7 -20 -100 -20 -93 0 -100 1 -100 20 0 19 7 20 100 20 93 0 100 -1 100 -20z" transform="translate(0.000000,60.000000) scale(0.100000,-0.100000)"/></g></svg>