<svg xmlns="http://www.w3.org/2000/svg" xmlns:xlink="http://www.w3.org/1999/xlink" width="512" height="512" fill="none" viewBox="0 0 512 512"><rect id="«r9»" width="512" height="512" x="0" y="0" fill="url(#«ra»)" stroke="#FFF" stroke-opacity="100%" stroke-width="0" paint-order="stroke" rx="128"/><clipPath id="clip"><use xlink:href="#«r9»"/></clipPath><defs><radialGradient id="«ra»" cx="50%" cy="50%" r="100%" fx="50%" fy="0%" gradientUnits="objectBoundingBox"><stop stop-color="#FC4FFE"/><stop offset="1" stop-color="#0E18B8"/></radialGradient><radialGradient id="«rb»" cx="0" cy="0" r="1" gradientTransform="translate(256) rotate(90) scale(512)" gradientUnits="userSpaceOnUse"><stop stop-color="#fff"/><stop offset="1" stop-color="#fff" stop-opacity="0"/></radialGradient></defs><svg xmlns="http://www.w3.org/2000/svg" width="352" height="352" x="80" y="80" fill="none" alignment-baseline="middle" viewBox="0 0 16 16" style="color:#fff"><path stroke="currentColor" stroke-linecap="round" stroke-linejoin="round" stroke-width="1.5" d="M8.25 14.25c-3.75 0-6.5-2.798-6.5-6.25A6.25 6.25 0 0 1 8 1.75c5 0 6.25 3.25 6.25 6.25v.25a2 2 0 0 1-2 2v0a2 2 0 0 1-2-2v-2.5m0 2.25a2.25 2.25 0 1 1-4.5 0 2.25 2.25 0 0 1 4.5 0Z"/></svg></svg>