<svg xmlns="http://www.w3.org/2000/svg" width="41" height="29" fill="none" viewBox="0 0 41 29"><path fill="#FFD800" d="M11.7072 0H5.85352V5.79928H11.7072V0Z"/><path fill="#FFD800" d="M35.1252 0H29.2715V5.79928H35.1252V0Z"/><path fill="#FFAF00" d="M17.561 5.79883H5.85352V11.5981H17.561V5.79883Z"/><path fill="#FFAF00" d="M35.1254 5.79883H23.418V11.5981H35.1254V5.79883Z"/><path fill="#FF8205" d="M35.1258 11.5977H5.85352V17.3969H35.1258V11.5977Z"/><path fill="#FA500F" d="M11.7072 17.3984H5.85352V23.1977H11.7072V17.3984Z"/><path fill="#FA500F" d="M23.4162 17.3984H17.5625V23.1977H23.4162V17.3984Z"/><path fill="#FA500F" d="M35.1252 17.3984H29.2715V23.1977H35.1252V17.3984Z"/><path fill="#E10500" d="M17.5648 23.2012H0V29.0005H17.5648V23.2012Z"/><path fill="#E10500" d="M40.9828 23.2012H23.418V29.0005H40.9828V23.2012Z"/></svg>