<svg xmlns="http://www.w3.org/2000/svg" id="e4ae8a02-ecdf-4615-acab-7de50aa6608c" width="18" height="18" viewBox="0 0 18 18"><defs><linearGradient id="b1fe53e9-3732-4e46-b453-fa1ea6f957c6" x1="6.36" x2="6.36" y1="22.03" y2="-1.85" gradientUnits="userSpaceOnUse"><stop offset="0" stop-color="#0078d4"/><stop offset=".17" stop-color="#1c84dc"/><stop offset=".38" stop-color="#3990e4"/><stop offset=".59" stop-color="#4d99ea"/><stop offset=".8" stop-color="#5a9eee"/><stop offset="1" stop-color="#5ea0ef"/></linearGradient><linearGradient id="e40ed2c4-7dda-4984-81b6-12828653a65c" x1="6.36" x2="6.36" y1="15.59" y2="1.94" gradientUnits="userSpaceOnUse"><stop offset="0" stop-color="#d2ebff"/><stop offset="1" stop-color="#f0fffd"/></linearGradient></defs><title>Icon-intune-333</title><rect width="10.17" height="16.99" x="1.28" y=".5" fill="url(#b1fe53e9-3732-4e46-b453-fa1ea6f957c6)" rx=".51"/><rect width="1.14" height=".97" x="5.79" y="16.17" fill="#f2f2f2" rx=".27"/><rect width="2.34" height=".31" x="5.19" y="1.07" fill="#f2f2f2" rx=".15"/><rect width="8.26" height="13.65" x="2.23" y="1.94" fill="url(#e40ed2c4-7dda-4984-81b6-12828653a65c)" opacity=".9" rx=".19"/><rect width="7.52" height="7.52" x="9.2" y="9.98" fill="#76bc2d" rx=".28"/><path fill="#fff" d="M10.9,13.22h.61a.19.19,0,0,1,.19.19v2.44a.19.19,0,0,1-.19.19h-.43a.19.19,0,0,1-.19-.19V13.22a0,0,0,0,1,0,0Z" transform="translate(29.63 16.98) rotate(135)"/><path fill="#fff" d="M13.61,10.66h.61a0,0,0,0,1,0,0v5.6a.19.19,0,0,1-.19.19h-.43a.19.19,0,0,1-.19-.19V10.85a.19.19,0,0,1,.19-.19Z" transform="translate(14 32.92) rotate(-135)"/></svg>