<svg xmlns="http://www.w3.org/2000/svg" id="e4e764cd-2e73-472f-b88a-bf8bfc2c2994" width="18" height="18" viewBox="0 0 18 18"><defs><radialGradient id="ac8b32da-30ca-4b92-8d0f-8d2d5ef278a0" cx="5.72" cy="7.45" r="8.42" gradientTransform="translate(3.23 1.51) scale(1.01 1.01)" gradientUnits="userSpaceOnUse"><stop offset=".18" stop-color="#5ea0ef"/><stop offset=".56" stop-color="#5c9fee"/><stop offset=".69" stop-color="#559ced"/><stop offset=".78" stop-color="#4a97e9"/><stop offset=".86" stop-color="#3990e4"/><stop offset=".93" stop-color="#2387de"/><stop offset=".99" stop-color="#087bd6"/><stop offset="1" stop-color="#0078d4"/></radialGradient><radialGradient id="a9954820-cb38-4943-9842-f0a568d2b015" cx="28.18" cy="202.29" r="2.7" gradientTransform="translate(-17.77 -185.01) scale(0.95)" gradientUnits="userSpaceOnUse"><stop offset=".19" stop-color="#8c8e90"/><stop offset=".35" stop-color="#848688"/><stop offset=".6" stop-color="#6e7071"/><stop offset=".91" stop-color="#4a4b4c"/><stop offset="1" stop-color="#3e3f3f"/></radialGradient></defs><title>Icon-manage-317</title><ellipse cx="9" cy="9" fill="url(#ac8b32da-30ca-4b92-8d0f-8d2d5ef278a0)" rx="8.5" ry="8.47"/><ellipse cx="9" cy="9" fill="#fff" rx="7.4" ry="7.37"/><path fill="#9cebff" d="M2.72,9.44a6.24,6.24,0,0,0,1.82,4l2-2a3.53,3.53,0,0,1-1-2Z"/><path fill="#32bedd" d="M13.13,4.27A6.25,6.25,0,0,0,9.44,2.74V5.53a3.41,3.41,0,0,1,1.71.7Z"/><path fill="#32bedd" d="M4.87,4.27l2,2a3.41,3.41,0,0,1,1.71-.7V2.74A6.25,6.25,0,0,0,4.87,4.27Z"/><path fill="#32bedd" d="M11.78,6.85a3.6,3.6,0,0,1,.71,1.71h2.79a6.16,6.16,0,0,0-1.53-3.67Z"/><path fill="#50e6ff" d="M6.22,6.85l-2-2A6.16,6.16,0,0,0,2.72,8.56H5.51A3.6,3.6,0,0,1,6.22,6.85Z"/><path fill="#f04049" d="M14.14,7a.45.45,0,0,0-.57-.25L9.45,8.41l.32.81,4.12-1.63A.44.44,0,0,0,14.14,7Z"/><ellipse cx="9" cy="9" fill="url(#a9954820-cb38-4943-9842-f0a568d2b015)" rx="1.2" ry="1.2"/></svg>