<svg xmlns="http://www.w3.org/2000/svg" xmlns:svg="http://www.w3.org/2000/svg" id="svg2" version="1.1" viewBox="0 0 99.819 73.169"><metadata id="metadata7"/><g id="layer1" transform="translate(-347.23336,-418.63483)"><g id="g2986" transform="translate(289.09436,379.74083)"><path id="path2988" d="m 108.052,112.063 c -27.521,0 -49.913,-15.231 -49.913,-33.952 0,-18.718 22.392,-33.949 49.913,-33.949 27.521,0 49.906,15.231 49.906,33.949 0,18.721 -22.385,33.952 -49.906,33.952 z m 0,-59.966 c -22.753,0 -41.978,11.912 -41.978,26.014 0,14.104 19.225,26.017 41.978,26.017 23.144,0 41.978,-11.67 41.978,-26.017 C 150.029,64.01 130.802,52.097 108.052,52.097 z" style="fill:#4a3952"/><path id="path2990" d="m 108.052,95.205 c -18.298,0 -32.099,-7.348 -32.099,-17.094 0,-9.746 13.801,-17.094 32.099,-17.094 18.301,0 32.099,7.348 32.099,17.094 0,9.746 -13.798,17.094 -32.099,17.094 z m 0,-27.576 c -14.589,0 -25.488,5.533 -25.488,10.482 0,4.949 10.899,10.482 25.488,10.482 14.589,0 25.488,-5.533 25.488,-10.482 0,-4.949 -10.9,-10.482 -25.488,-10.482 z" style="fill:#4a3952"/><polygon id="polygon2992" points="58.139 72.843 58.139 78.111 60.45 85.791 62.31 79.49 62.723 71.432" style="fill:#4a3952"/><polygon id="polygon2994" points="152.599 83.312 157.958 78.111 157.958 72.843 152.186 75.048" style="fill:#4a3952"/><polygon id="polygon2996" points="139.273 71.225 135.967 74.531 138.24 81.349 140.151 78.111 140.151 72.843" style="fill:#4a3952"/><polygon id="polygon2998" points="78.322 70.915 75.953 72.843 75.953 78.111 78.322 83.209 78.839 78.663" style="fill:#4a3952"/><path id="path3000" d="m 108.052,106.795 c -27.521,0 -49.913,-15.231 -49.913,-33.952 0,-18.718 22.392,-33.949 49.913,-33.949 27.521,0 49.906,15.231 49.906,33.949 0,18.721 -22.385,33.952 -49.906,33.952 z m 0,-59.966 c -22.753,0 -41.978,11.912 -41.978,26.014 0,14.104 19.225,26.017 41.978,26.017 23.144,0 41.978,-11.67 41.978,-26.017 -0.001,-14.102 -19.228,-26.014 -41.978,-26.014 z" style="fill:#c7dcf3"/><path id="path3002" d="m 108.052,89.936 c -18.298,0 -32.099,-7.348 -32.099,-17.094 0,-9.746 13.801,-17.094 32.099,-17.094 18.301,0 32.099,7.348 32.099,17.094 0,9.746 -13.798,17.094 -32.099,17.094 z m 0,-27.576 c -14.589,0 -25.488,5.533 -25.488,10.482 0,4.949 10.899,10.482 25.488,10.482 14.589,0 25.488,-5.533 25.488,-10.482 0,-4.949 -10.9,-10.482 -25.488,-10.482 z" style="fill:#c7dcf3"/><polygon id="polygon3004" points="96.79 76.563 103.3 78.128 103.506 72.775 96.79 72.843" style="fill:#4a3952"/><polygon id="polygon3006" points="119.314 72.843 114.973 72.775 111.151 75.667 111.151 79.298 114.043 77.611 119.314 76.563" style="fill:#4a3952"/><ellipse id="ellipse3008" cx="108.051" cy="76.563" d="m 119.313,76.563004 c 0,1.873902 -5.04217,3.392999 -11.262,3.392999 -6.21983,0 -11.261998,-1.519097 -11.261998,-3.392999 0,-1.873903 5.042168,-3.393 11.261998,-3.393 6.21983,0 11.262,1.519097 11.262,3.393 z" rx="11.262" ry="3.393" style="fill:#4a3952"/><ellipse id="ellipse3010" cx="108.051" cy="72.844" d="m 119.313,72.844002 c 0,1.873902 -5.04217,3.393 -11.262,3.393 -6.21983,0 -11.261998,-1.519098 -11.261998,-3.393 0,-1.873902 5.042168,-3.393 11.261998,-3.393 6.21983,0 11.262,1.519098 11.262,3.393 z" rx="11.262" ry="3.393" style="fill:#c7dcf3"/></g></g></svg>