<svg xmlns="http://www.w3.org/2000/svg" xmlns:svg="http://www.w3.org/2000/svg" id="svg2" version="1.1" viewBox="0 0 99.823 74.099"><metadata id="metadata7"/><g id="layer1" transform="translate(-510.0885,-309.5984)"><g id="g2986" transform="translate(451.8465,271.4784)"><polygon id="polygon2988" points="101.13 57.377 92.289 58.952 92.289 63.888 95.242 68.224 105.366 66.675" style="fill:#525252"/><g id="g2990"><path id="path2992" d="m 114.748,48.038 c -3.402,-0.134 -6.632,0 -9.764,0.27 l 3.709,2.458 c -9.06,0 -16.404,5.875 -16.404,13.122 0,7.247 7.344,13.121 16.404,13.121 9.059,0 16.403,5.875 16.403,13.121 0,7.247 -7.344,13.121 -16.403,13.121 0,0 -4.023,0.335 -8.143,0.646 -4.325,0.326 -8.269,-1.876 -10.134,-2.25 -5.733,-1.152 -13.633,-2.881 -21.544,-11.818 2.182,2.76 4.621,5.179 6.517,7.176 5.888,6.198 17.975,10.227 17.975,10.227 0,0 10.847,4.029 31.612,-0.62 20.765,-4.649 26.963,-20.764 28.822,-31.612 1.859,-10.846 -15.496,-26.032 -39.05,-26.962 z" style="fill:#525252"/></g><g id="g2994"><path id="path2996" d="m 114.748,43.102 c -3.402,-0.134 -6.632,0 -9.764,0.27 l 3.709,2.458 c -9.06,0 -16.404,5.875 -16.404,13.122 0,7.247 7.344,13.121 16.404,13.121 9.059,0 16.403,5.875 16.403,13.121 0,7.246 -7.344,13.121 -16.403,13.121 0,0 -4.023,0.335 -8.143,0.646 -4.325,0.326 -8.269,-1.876 -10.134,-2.25 -5.733,-1.152 -13.633,-2.881 -21.544,-11.818 2.182,2.76 4.621,5.179 6.517,7.176 5.888,6.198 17.975,10.227 17.975,10.227 0,0 10.847,4.029 31.612,-0.62 20.765,-4.649 26.963,-20.764 28.822,-31.612 1.859,-10.846 -15.496,-26.032 -39.05,-26.962 z" style="fill:#fff"/></g><g id="g2998"><g id="g3000"><path id="path3002" d="m 108.155,43.409 c -22.92,0 -42.286,11.912 -42.286,26.014 0,1.048 0.14,2.079 0.346,3.1 2.585,-12.702 20.724,-22.915 41.94,-22.915 21.216,0 39.358,10.213 41.943,22.915 0.207,-1.02 0.346,-2.051 0.346,-3.1 0,-14.102 -19.369,-26.014 -42.289,-26.014 z" style="fill:#525252"/></g></g><g id="g3004"><path id="path3006" d="m 108.155,106.021 c -25.983,0 -47.371,-13.581 -49.682,-30.853 -0.137,1.022 -0.231,2.053 -0.231,3.099 0,18.721 22.392,33.952 49.913,33.952 27.525,0 49.91,-15.231 49.91,-33.952 0,-1.046 -0.094,-2.077 -0.231,-3.099 -2.312,17.273 -23.693,30.853 -49.679,30.853 z" style="fill:#525252"/></g><polygon id="polygon3008" points="58.242 78.268 61.771 81.551 62.184 71.943 58.242 72.069" style="fill:#525252"/><polygon id="polygon3010" points="155.469 72.667 155.366 80.828 156.605 83.1 158.065 78.268 158.065 72.069" style="fill:#525252"/><path id="path3012" d="m 108.155,106.021 c -27.521,0 -49.913,-15.231 -49.913,-33.952 0,-18.718 22.392,-33.949 49.913,-33.949 27.525,0 49.91,15.231 49.91,33.949 0,18.721 -22.385,33.952 -49.91,33.952 z m 0,-59.965 c -22.753,0 -41.978,11.912 -41.978,26.014 0,14.104 19.225,26.017 41.978,26.017 22.753,0 41.981,-11.912 41.981,-26.017 0,-14.102 -19.228,-26.014 -41.981,-26.014 z" style="fill:#fff"/></g></g></svg>