<svg xmlns="http://www.w3.org/2000/svg" width="18" height="18" viewBox="0 0 18 18"><defs><linearGradient id="a9c4371a-d707-43d8-b213-37d041a253ab" x1="-40" x2="-40" y1="74.181" y2="59.819" gradientTransform="translate(49 -58)" gradientUnits="userSpaceOnUse"><stop offset="0" stop-color="#198ab3"/><stop offset=".619" stop-color="#31d0f1"/><stop offset="1" stop-color="#32d4f5"/></linearGradient></defs><g id="a71de4a0-d0de-4b34-8152-efb31beca04f"><g id="bcd05f9a-32fa-46a6-8f5a-731299f106a8"><g><path fill="#32bedd" d="M6.216.5H2.845A1.026,1.026,0,0,0,1.819,1.526V4.9H3.871V2.552H6.216Z"/><path fill="#32bedd" d="M15.155.5h-3.37V2.552h2.344V4.9h2.052V1.526A1.026,1.026,0,0,0,15.155.5Z"/><path fill="#32bedd" d="M14.129,13.1v2.345H11.785V17.5h3.37a1.026,1.026,0,0,0,1.026-1.026V13.1Z"/><path fill="#32bedd" d="M3.871,15.448V13.1H1.819v3.371A1.026,1.026,0,0,0,2.845,17.5H6.216V15.448Z"/><path fill="url(#a9c4371a-d707-43d8-b213-37d041a253ab)" d="M3.724,16.181H14.276a.588.588,0,0,0,.586-.586V2.4a.588.588,0,0,0-.586-.586H3.724a.588.588,0,0,0-.586.586V15.6A.588.588,0,0,0,3.724,16.181Z"/><path fill="#fff" d="M4.6,15.009H13.4a.294.294,0,0,0,.293-.293V3.285a.294.294,0,0,0-.293-.294H4.6a.294.294,0,0,0-.293.294V14.716A.294.294,0,0,0,4.6,15.009Z"/><path fill="#5e9624" d="M6.655,13.25h4.69a.294.294,0,0,0,.293-.293V11.638a.294.294,0,0,0-.293-.293H6.655a.294.294,0,0,0-.293.293v1.319A.294.294,0,0,0,6.655,13.25Z"/><path fill="#76bc2d" d="M6.655,9.953h4.69a.294.294,0,0,0,.293-.293V8.341a.294.294,0,0,0-.293-.294H6.655a.294.294,0,0,0-.293.294V9.66A.294.294,0,0,0,6.655,9.953Z"/><path fill="#86d633" d="M6.655,6.655h4.69a.294.294,0,0,0,.293-.293V5.043a.294.294,0,0,0-.293-.293H6.655a.294.294,0,0,0-.293.293V6.362A.294.294,0,0,0,6.655,6.655Z"/></g></g></g>​</svg>