<svg xmlns="http://www.w3.org/2000/svg" width="18" height="18" viewBox="0 0 18 18"><defs><linearGradient id="fab66c9e-8ade-4b14-85a1-89a3dd7ceae9" x1="8.141" x2="8.141" y1="1.048" y2="13.741" gradientUnits="userSpaceOnUse"><stop offset="0" stop-color="#5ea0ef"/><stop offset="1" stop-color="#0078d4"/></linearGradient></defs><rect width="16.282" height="13.678" y=".609" fill="url(#fab66c9e-8ade-4b14-85a1-89a3dd7ceae9)" rx=".761"/><ellipse cx="6.524" cy="5.329" fill="#fff" rx="1.131" ry="1.137"/><ellipse cx="9.659" cy="7.46" fill="#fff" rx="1.131" ry="1.137"/><ellipse cx="12.695" cy="3.422" fill="#fff" rx="1.131" ry="1.137"/><ellipse cx="3.587" cy="9.511" fill="#fff" rx="1.131" ry="1.137"/><polygon fill="#fff" points="3.996 9.798 3.177 9.224 6.398 4.64 9.546 6.778 12.296 3.122 13.095 3.723 9.773 8.141 6.65 6.02 3.996 9.798"/><path fill="#fff" d="M6.931,17.092a1.169,1.169,0,0,1-1.168-1.167c.2-3.889,2.539-6.362,5.974-6.362s5.79,2.473,5.974,6.3A1.17,1.17,0,0,1,16.6,17.09l-9.67,0Z"/><path fill="#0078d4" d="M11.737,9.85c3.427,0,5.52,2.549,5.687,6.029a.881.881,0,0,1-.836.924H6.931a.88.88,0,0,1-.881-.88c0-.015,0-.03,0-.046C6.227,12.4,8.316,9.85,11.737,9.85m0-.575c-3.6,0-6.058,2.581-6.26,6.574v.076a1.458,1.458,0,0,0,1.456,1.454h9.626l.059,0A1.457,1.457,0,0,0,18,15.85c-.189-3.932-2.705-6.575-6.261-6.575Z"/><path fill="#50e6ff" d="M14.368,12.272a3.991,3.991,0,0,0-2.382-1.014v1.851a2.224,2.224,0,0,1,1.106.472Z"/><path fill="#50e6ff" d="M9.044,12.272l1.276,1.309a2.224,2.224,0,0,1,1.106-.472V11.258A3.994,3.994,0,0,0,9.044,12.272Z"/><path fill="#32bedd" d="M13.5,13.993a2.35,2.35,0,0,1,.462,1.136h1.8a4.231,4.231,0,0,0-.987-2.445Z"/><path fill="#50e6ff" d="M9.917,13.993,8.641,12.684a4.223,4.223,0,0,0-.986,2.445h1.8A2.352,2.352,0,0,1,9.917,13.993Z"/><path fill="#e62323" d="M14.773,13.526a.4.4,0,0,0-.363-.233.388.388,0,0,0-.167.038l-2.772,1.3.334.726,2.775-1.3A.4.4,0,0,0,14.773,13.526Z"/><circle cx="11.737" cy="14.963" r=".954" fill="#4f4f4f"/></svg>