<svg xmlns="http://www.w3.org/2000/svg" width="24" height="24" fill="none" viewBox="0 0 24 24"><rect width="2" height="10" x="11" y="9" fill="#3BA256"/><rect width="2" height="6" x="8" y="12" fill="#3BA256"/><rect width="2" height="4" x="14" y="14" fill="#3BA256"/><path fill="#FBBC05" fill-rule="evenodd" d="M12 21C16.9706 21 21 16.9706 21 12C21 7.02944 16.9706 3 12 3C7.02944 3 3 7.02944 3 12C3 16.9706 7.02944 21 12 21ZM12 18C15.3137 18 18 15.3137 18 12C18 8.68629 15.3137 6 12 6C8.68629 6 6 8.68629 6 12C6 15.3137 8.68629 18 12 18Z" clip-rule="evenodd"/><path fill="#4285F4" fill-rule="evenodd" d="M17.2148 19.3361L20.4992 22.6205L22.6205 20.4992L19.3361 17.2148C20.3838 15.7436 21 13.9437 21 12C21 9.49793 19.979 7.23436 18.3309 5.60315L16.2364 7.75113C17.3259 8.8374 18 10.34 18 12C18 14.201 16.8149 16.1251 15.048 17.1692L17.2148 19.3361Z" clip-rule="evenodd"/><path fill="#EA4335" fill-rule="evenodd" d="M16.2426 7.75736C15.1569 6.67157 13.6569 6 12 6C8.68629 6 6 8.68629 6 12H3C3 7.02944 7.02944 3 12 3C14.4853 3 16.7353 4.00736 18.364 5.63604L16.2426 7.75736Z" clip-rule="evenodd"/></svg>